<svg width="120" height="120" viewBox="0 0 120 120" fill="none" xmlns="http://www.w3.org/2000/svg">
<path d="M59.5 26.1621C60.8255 26.1621 61.9004 27.237 61.9004 28.5625C61.9004 29.888 60.8255 30.9629 59.5 30.9629H21.9004V91.7676L28.5098 85.1582C29.1474 84.5206 30.0124 84.1621 30.9141 84.1621H91.0996V63.0625C91.0996 61.737 92.1745 60.6621 93.5 60.6621C94.8255 60.6621 95.9004 61.737 95.9004 63.0625V85.5625C95.9004 87.4403 94.3778 88.9629 92.5 88.9629H31.4941L22.0508 98.4062C20.2239 100.233 17.0997 98.939 17.0996 96.3555V29.5625C17.0996 27.6847 18.6222 26.1621 20.5 26.1621H59.5ZM61.5 68.0625C62.8807 68.0625 64 69.1818 64 70.5625C64 71.9432 62.8807 73.0625 61.5 73.0625H34.5C33.1193 73.0625 32 71.9432 32 70.5625C32 69.1818 33.1193 68.0625 34.5 68.0625H61.5ZM68.5 55.0625C69.8807 55.0625 71 56.1818 71 57.5625C71 58.9432 69.8807 60.0625 68.5 60.0625H34.5C33.1193 60.0625 32 58.9432 32 57.5625C32 56.1818 33.1193 55.0625 34.5 55.0625H68.5ZM85.5 20C85.636 20 85.9035 20.2043 86.3115 20.6074C87.2739 24.3672 89.2338 27.7973 91.9844 30.5352C94.7529 33.3036 98.0654 35.1976 101.907 36.1885C102.034 36.1885 102.228 36.4609 102.5 37C102.5 37.068 102.296 37.3404 101.893 37.8115C98.1126 38.7191 94.6607 40.6631 91.9258 43.4258C89.1608 46.1647 87.2166 49.622 86.3115 53.4072C86.3115 53.5335 86.0391 53.728 85.5 54C85.432 54 85.1596 53.7957 84.6885 53.3926C83.7809 49.6126 81.8369 46.1607 79.0742 43.4258C76.3342 40.6592 72.8779 38.7104 69.0928 37.7969C68.9665 37.7386 68.772 37.4711 68.5 37C68.5 36.864 68.7043 36.5965 69.1074 36.1885C72.8874 35.2809 76.3393 33.3369 79.0742 30.5742C81.8408 27.8342 83.7896 24.3779 84.7031 20.5928C84.7614 20.4665 85.0289 20.272 85.5 20ZM57.5 42.0625C58.8807 42.0625 60 43.1818 60 44.5625C60 45.9432 58.8807 47.0625 57.5 47.0625H34.5C33.1193 47.0625 32 45.9432 32 44.5625C32 43.1818 33.1193 42.0625 34.5 42.0625H57.5Z" fill="url(#paint0_linear_1334_6155)"/>
<defs>
<linearGradient id="paint0_linear_1334_6155" x1="31.4649" y1="74.3821" x2="72.0136" y2="24.6753" gradientUnits="userSpaceOnUse">
<stop stop-color="#3186FF"/>
<stop offset="0.49754" stop-color="#346BF1"/>
<stop offset="1" stop-color="#4FA0FF"/>
</linearGradient>
</defs>
</svg>
