<svg xmlns="http://www.w3.org/2000/svg" version="1.1" xmlns:xlink="http://www.w3.org/1999/xlink" width="106" height="106"><svg xmlns="http://www.w3.org/2000/svg" version="1.1" xmlns:xlink="http://www.w3.org/1999/xlink" width="106" height="106"><svg width="106" height="106" viewBox="0 0 106 106" fill="none" xmlns="http://www.w3.org/2000/svg">
<path d="M67.4634 33.4815L70.8568 33.5459L80.0794 24.3514L80.5277 20.4569C73.1992 13.9553 63.557 10 52.9965 10C33.877 10 17.7528 22.9638 12.9712 40.5374C13.9791 39.8437 16.1278 40.3586 16.1278 40.3586L34.5621 37.3367C34.5621 37.3367 35.5199 35.7739 35.9862 35.8705C40.2047 31.2714 46.2706 28.3747 52.9965 28.3747C58.4704 28.3747 63.5032 30.2915 67.4598 33.4815H67.4634Z" fill="#EA4335"></path>
<path d="M93.0361 40.559C90.8981 32.6805 86.4752 25.7319 80.5241 20.4534L67.4598 33.478C72.6898 37.6944 76.0438 44.1388 76.0438 51.3521V53.648C82.3966 53.648 87.5657 58.8014 87.5657 65.1349C87.5657 71.4684 82.3966 76.6217 76.0438 76.6217H53L50.6971 78.932V92.7148L53 95H76.0438C92.559 95 106 81.5999 106 65.1349C106 54.9533 100.863 45.9519 93.0397 40.559H93.0361Z" fill="#4285F4"></path>
<path d="M29.9563 94.9964H52.9821V76.6181H29.9563C28.2632 76.6181 26.6597 76.2462 25.2105 75.5846L21.8924 76.6002L12.6627 85.8019L11.8556 88.9096C16.8848 92.7219 23.1587 94.9964 29.9563 94.9964Z" fill="#34A853"></path>
<path d="M29.9562 35.2697C13.441 35.2697 0 48.6699 0 65.1348C0 74.83 4.65968 83.4595 11.8662 88.9168L25.2247 75.5989C21.2251 73.7965 18.4343 69.7875 18.4343 65.1348C18.4343 58.8013 23.6034 53.648 29.9562 53.648C34.623 53.648 38.6442 56.4339 40.4522 60.4178L53.8107 47.0999C48.3367 39.9152 39.6809 35.2697 29.9562 35.2697Z" fill="#FBBC04"></path>
</svg></svg><style>@media (prefers-color-scheme: light) { :root { filter: none; } }
@media (prefers-color-scheme: dark) { :root { filter: none; } }
</style></svg>