<svg width="120" height="120" viewBox="0 0 120 120" fill="none" xmlns="http://www.w3.org/2000/svg">
<path d="M40.2083 37.6042C39.0278 37.6042 37.9861 38.0208 37.0833 38.8542C36.25 39.6875 35.8333 40.7292 35.8333 41.9792C35.8333 43.2292 36.25 44.3056 37.0833 45.2083C37.9861 46.0417 39.0625 46.4583 40.3125 46.4583C41.4931 46.4583 42.5 46.0417 43.3333 45.2083C44.2361 44.3056 44.6875 43.2292 44.6875 41.9792C44.6875 40.7292 44.2361 39.6875 43.3333 38.8542C42.5 38.0208 41.4583 37.6042 40.2083 37.6042ZM40.2083 77.7083C39.0278 77.7083 37.9861 78.1597 37.0833 79.0625C36.25 79.8958 35.8333 80.9375 35.8333 82.1875C35.8333 83.4375 36.25 84.4792 37.0833 85.3125C37.9861 86.1458 39.0625 86.5625 40.3125 86.5625C41.4931 86.5625 42.5 86.1458 43.3333 85.3125C44.2361 84.4097 44.6875 83.3681 44.6875 82.1875C44.6875 80.9375 44.2361 79.8958 43.3333 79.0625C42.5 78.1597 41.4583 77.7083 40.2083 77.7083ZM27.8125 25.9375H92.1875C93.0903 25.9375 93.8542 26.25 94.4792 26.875C95.1042 27.4306 95.4167 28.2292 95.4167 29.2708V54.0625C95.4167 55.3125 95.1042 56.3194 94.4792 57.0833C93.8542 57.7778 93.0903 58.125 92.1875 58.125H27.8125C26.9097 58.125 26.1458 57.7778 25.5208 57.0833C24.8958 56.3194 24.5833 55.3125 24.5833 54.0625V29.2708C24.5833 28.2292 24.8958 27.4306 25.5208 26.875C26.1458 26.25 26.9097 25.9375 27.8125 25.9375ZM29.2708 30.625V53.4375H90.7292V30.625H29.2708ZM27.8125 66.0417H91.6667C92.7083 66.0417 93.5764 66.4583 94.2708 67.2917C95.0347 68.0556 95.4167 68.9236 95.4167 69.8958V94.2708C95.4167 95.5208 95.0347 96.5278 94.2708 97.2917C93.5764 97.9861 92.7083 98.3333 91.6667 98.3333H28.3333C27.2222 98.3333 26.3194 97.9861 25.625 97.2917C24.9306 96.5278 24.5833 95.5208 24.5833 94.2708V69.8958C24.5833 68.9236 24.8611 68.0556 25.4167 67.2917C26.0417 66.4583 26.8403 66.0417 27.8125 66.0417ZM29.2708 70.7292V93.5417H90.7292V70.7292H29.2708ZM29.2708 30.625V53.4375V30.625ZM29.2708 70.7292V93.5417V70.7292Z" fill="white"/>
<path d="M40.2083 37.6042C39.0278 37.6042 37.9861 38.0208 37.0833 38.8542C36.25 39.6875 35.8333 40.7292 35.8333 41.9792C35.8333 43.2292 36.25 44.3056 37.0833 45.2083C37.9861 46.0417 39.0625 46.4583 40.3125 46.4583C41.4931 46.4583 42.5 46.0417 43.3333 45.2083C44.2361 44.3056 44.6875 43.2292 44.6875 41.9792C44.6875 40.7292 44.2361 39.6875 43.3333 38.8542C42.5 38.0208 41.4583 37.6042 40.2083 37.6042ZM40.2083 77.7083C39.0278 77.7083 37.9861 78.1597 37.0833 79.0625C36.25 79.8958 35.8333 80.9375 35.8333 82.1875C35.8333 83.4375 36.25 84.4792 37.0833 85.3125C37.9861 86.1458 39.0625 86.5625 40.3125 86.5625C41.4931 86.5625 42.5 86.1458 43.3333 85.3125C44.2361 84.4097 44.6875 83.3681 44.6875 82.1875C44.6875 80.9375 44.2361 79.8958 43.3333 79.0625C42.5 78.1597 41.4583 77.7083 40.2083 77.7083ZM27.8125 25.9375H92.1875C93.0903 25.9375 93.8542 26.25 94.4792 26.875C95.1042 27.4306 95.4167 28.2292 95.4167 29.2708V54.0625C95.4167 55.3125 95.1042 56.3194 94.4792 57.0833C93.8542 57.7778 93.0903 58.125 92.1875 58.125H27.8125C26.9097 58.125 26.1458 57.7778 25.5208 57.0833C24.8958 56.3194 24.5833 55.3125 24.5833 54.0625V29.2708C24.5833 28.2292 24.8958 27.4306 25.5208 26.875C26.1458 26.25 26.9097 25.9375 27.8125 25.9375ZM29.2708 30.625V53.4375H90.7292V30.625H29.2708ZM27.8125 66.0417H91.6667C92.7083 66.0417 93.5764 66.4583 94.2708 67.2917C95.0347 68.0556 95.4167 68.9236 95.4167 69.8958V94.2708C95.4167 95.5208 95.0347 96.5278 94.2708 97.2917C93.5764 97.9861 92.7083 98.3333 91.6667 98.3333H28.3333C27.2222 98.3333 26.3194 97.9861 25.625 97.2917C24.9306 96.5278 24.5833 95.5208 24.5833 94.2708V69.8958C24.5833 68.9236 24.8611 68.0556 25.4167 67.2917C26.0417 66.4583 26.8403 66.0417 27.8125 66.0417ZM29.2708 70.7292V93.5417H90.7292V70.7292H29.2708ZM29.2708 30.625V53.4375V30.625ZM29.2708 70.7292V93.5417V70.7292Z" fill="url(#paint0_linear_1692_18870)"/>
<defs>
<linearGradient id="paint0_linear_1692_18870" x1="5.92549" y1="130.633" x2="146.735" y2="22.7171" gradientUnits="userSpaceOnUse">
<stop stop-color="#3186FF"/>
<stop offset="0.49754" stop-color="#346BF1"/>
<stop offset="1" stop-color="#4FA0FF"/>
</linearGradient>
</defs>
</svg>
