<svg width="120" height="120" viewBox="0 0 120 120" fill="none" xmlns="http://www.w3.org/2000/svg">
<path d="M39.375 100.021C36.3194 100.021 33.7847 99.0139 31.7708 97C29.7569 94.9167 28.75 92.3819 28.75 89.3958C28.75 86.8958 29.5139 84.6736 31.0417 82.7292C32.6389 80.7847 34.6181 79.5347 36.9792 78.9792V41.8958C34.6181 41.3403 32.6389 40.125 31.0417 38.25C29.5139 36.3056 28.75 34.0486 28.75 31.4792C28.75 28.5625 29.7569 26.0625 31.7708 23.9792C33.7847 21.8958 36.2847 20.8542 39.2708 20.8542C42.2569 20.8542 44.7917 21.8958 46.875 23.9792C48.9583 26.0625 50 28.5625 50 31.4792C50 34.0486 49.2014 36.3056 47.6042 38.25C46.0764 40.125 44.1319 41.3403 41.7708 41.8958V43.7708C41.7708 47.7986 43.125 51.2014 45.8333 53.9792C48.5417 56.6875 51.875 58.0417 55.8333 58.0417H64.0625C69.3403 58.0417 73.7847 59.8819 77.3958 63.5625C81.0764 67.2431 82.9167 71.6875 82.9167 76.8958V78.9792C85.3472 79.5347 87.3264 80.7847 88.8542 82.7292C90.4514 84.6736 91.25 86.8958 91.25 89.3958C91.25 92.3819 90.2083 94.9167 88.125 97C86.1111 99.0139 83.6111 100.021 80.625 100.021C77.7083 100.021 75.2083 99.0139 73.125 97C71.0417 94.9167 70 92.3819 70 89.3958C70 86.8958 70.7639 84.7083 72.2917 82.8333C73.8889 80.8889 75.8681 79.6389 78.2292 79.0833V76.8958C78.2292 73.0069 76.8403 69.7083 74.0625 67C71.3542 64.2222 68.0208 62.8333 64.0625 62.8333H55.8333C52.9861 62.8333 50.3472 62.2431 47.9167 61.0625C45.4861 59.8819 43.4375 58.2847 41.7708 56.2708V79.0833C44.1319 79.6389 46.0764 80.8889 47.6042 82.8333C49.2014 84.7083 50 86.8958 50 89.3958C50 92.3819 48.9583 94.9167 46.875 97C44.7917 99.0139 42.2917 100.021 39.375 100.021ZM39.375 95.3333C41.0417 95.3333 42.4306 94.7778 43.5417 93.6667C44.6528 92.4861 45.2083 91.0625 45.2083 89.3958C45.2083 87.7292 44.6528 86.3403 43.5417 85.2292C42.4306 84.0486 41.0417 83.4583 39.375 83.4583C37.7083 83.4583 36.2847 84.0486 35.1042 85.2292C33.9931 86.3403 33.4375 87.7292 33.4375 89.3958C33.4375 90.9931 33.9931 92.3819 35.1042 93.5625C36.2847 94.7431 37.7083 95.3333 39.375 95.3333ZM80.7292 95.3333C82.3264 95.3333 83.6806 94.7778 84.7917 93.6667C85.9722 92.4861 86.5625 91.0625 86.5625 89.3958C86.5625 87.7292 85.9722 86.3403 84.7917 85.2292C83.6806 84.0486 82.3264 83.4583 80.7292 83.4583C79.0625 83.4583 77.6389 84.0486 76.4583 85.2292C75.2778 86.3403 74.6875 87.7292 74.6875 89.3958C74.6875 90.9931 75.2778 92.3819 76.4583 93.5625C77.6389 94.7431 79.0625 95.3333 80.7292 95.3333ZM39.375 37.4167C41.0417 37.4167 42.4306 36.8611 43.5417 35.75C44.6528 34.5694 45.2083 33.1458 45.2083 31.4792C45.2083 29.8125 44.6528 28.4236 43.5417 27.3125C42.4306 26.1319 41.0417 25.5417 39.375 25.5417C37.7083 25.5417 36.2847 26.1319 35.1042 27.3125C33.9931 28.4931 33.4375 29.8819 33.4375 31.4792C33.4375 33.1458 33.9931 34.5694 35.1042 35.75C36.2847 36.8611 37.7083 37.4167 39.375 37.4167Z" fill="white"/>
<path d="M39.375 100.021C36.3194 100.021 33.7847 99.0139 31.7708 97C29.7569 94.9167 28.75 92.3819 28.75 89.3958C28.75 86.8958 29.5139 84.6736 31.0417 82.7292C32.6389 80.7847 34.6181 79.5347 36.9792 78.9792V41.8958C34.6181 41.3403 32.6389 40.125 31.0417 38.25C29.5139 36.3056 28.75 34.0486 28.75 31.4792C28.75 28.5625 29.7569 26.0625 31.7708 23.9792C33.7847 21.8958 36.2847 20.8542 39.2708 20.8542C42.2569 20.8542 44.7917 21.8958 46.875 23.9792C48.9583 26.0625 50 28.5625 50 31.4792C50 34.0486 49.2014 36.3056 47.6042 38.25C46.0764 40.125 44.1319 41.3403 41.7708 41.8958V43.7708C41.7708 47.7986 43.125 51.2014 45.8333 53.9792C48.5417 56.6875 51.875 58.0417 55.8333 58.0417H64.0625C69.3403 58.0417 73.7847 59.8819 77.3958 63.5625C81.0764 67.2431 82.9167 71.6875 82.9167 76.8958V78.9792C85.3472 79.5347 87.3264 80.7847 88.8542 82.7292C90.4514 84.6736 91.25 86.8958 91.25 89.3958C91.25 92.3819 90.2083 94.9167 88.125 97C86.1111 99.0139 83.6111 100.021 80.625 100.021C77.7083 100.021 75.2083 99.0139 73.125 97C71.0417 94.9167 70 92.3819 70 89.3958C70 86.8958 70.7639 84.7083 72.2917 82.8333C73.8889 80.8889 75.8681 79.6389 78.2292 79.0833V76.8958C78.2292 73.0069 76.8403 69.7083 74.0625 67C71.3542 64.2222 68.0208 62.8333 64.0625 62.8333H55.8333C52.9861 62.8333 50.3472 62.2431 47.9167 61.0625C45.4861 59.8819 43.4375 58.2847 41.7708 56.2708V79.0833C44.1319 79.6389 46.0764 80.8889 47.6042 82.8333C49.2014 84.7083 50 86.8958 50 89.3958C50 92.3819 48.9583 94.9167 46.875 97C44.7917 99.0139 42.2917 100.021 39.375 100.021ZM39.375 95.3333C41.0417 95.3333 42.4306 94.7778 43.5417 93.6667C44.6528 92.4861 45.2083 91.0625 45.2083 89.3958C45.2083 87.7292 44.6528 86.3403 43.5417 85.2292C42.4306 84.0486 41.0417 83.4583 39.375 83.4583C37.7083 83.4583 36.2847 84.0486 35.1042 85.2292C33.9931 86.3403 33.4375 87.7292 33.4375 89.3958C33.4375 90.9931 33.9931 92.3819 35.1042 93.5625C36.2847 94.7431 37.7083 95.3333 39.375 95.3333ZM80.7292 95.3333C82.3264 95.3333 83.6806 94.7778 84.7917 93.6667C85.9722 92.4861 86.5625 91.0625 86.5625 89.3958C86.5625 87.7292 85.9722 86.3403 84.7917 85.2292C83.6806 84.0486 82.3264 83.4583 80.7292 83.4583C79.0625 83.4583 77.6389 84.0486 76.4583 85.2292C75.2778 86.3403 74.6875 87.7292 74.6875 89.3958C74.6875 90.9931 75.2778 92.3819 76.4583 93.5625C77.6389 94.7431 79.0625 95.3333 80.7292 95.3333ZM39.375 37.4167C41.0417 37.4167 42.4306 36.8611 43.5417 35.75C44.6528 34.5694 45.2083 33.1458 45.2083 31.4792C45.2083 29.8125 44.6528 28.4236 43.5417 27.3125C42.4306 26.1319 41.0417 25.5417 39.375 25.5417C37.7083 25.5417 36.2847 26.1319 35.1042 27.3125C33.9931 28.4931 33.4375 29.8819 33.4375 31.4792C33.4375 33.1458 33.9931 34.5694 35.1042 35.75C36.2847 36.8611 37.7083 37.4167 39.375 37.4167Z" fill="url(#paint0_linear_1692_18868)"/>
<defs>
<linearGradient id="paint0_linear_1692_18868" x1="5.92549" y1="131.07" x2="146.735" y2="23.1546" gradientUnits="userSpaceOnUse">
<stop stop-color="#3186FF"/>
<stop offset="0.49754" stop-color="#346BF1"/>
<stop offset="1" stop-color="#4FA0FF"/>
</linearGradient>
</defs>
</svg>
