<svg xmlns="http://www.w3.org/2000/svg" width="120" height="120" fill="none" viewBox="0 0 120 120"><path fill="url(#paint0_linear_1185_7485)" d="M23.9375 35.8744C23.9375 42.6799 23.9375 48.4091 23.9375 53.0619C23.9375 57.7146 23.9375 60.041 23.9375 60.041C23.9375 59.9716 23.9375 59.9021 23.9375 59.8327V87.6452V37.2285C23.9375 36.8813 23.9375 36.5688 23.9375 36.291C23.9375 36.0133 23.9375 35.8744 23.9375 35.8744ZM25.2917 93.6869C23.625 93.6869 22.2014 93.0966 21.0208 91.916C19.8403 90.7354 19.25 89.3119 19.25 87.6452V37.2285C19.25 35.5619 19.8403 34.1383 21.0208 32.9577C22.2014 31.7771 23.625 31.1869 25.2917 31.1869H63C63.625 31.1869 64.1458 31.4299 64.5625 31.916C65.0486 32.3327 65.2917 32.8883 65.2917 33.5827C65.2917 34.2771 65.0486 34.8327 64.5625 35.2494C64.1458 35.666 63.625 35.8744 63 35.8744H25.2917C24.9444 35.8744 24.6319 36.0133 24.3542 36.291C24.0764 36.5688 23.9375 36.8813 23.9375 37.2285V87.6452C23.9375 87.9924 24.0764 88.3049 24.3542 88.5827C24.6319 88.8604 24.9444 88.9994 25.2917 88.9994H92.375C92.7223 88.9994 93.0348 88.8604 93.3125 88.5827C93.5902 88.3049 93.7292 87.9924 93.7292 87.6452V62.1244C93.7292 61.4299 93.9375 60.8744 94.3542 60.4577C94.8403 59.9716 95.3958 59.7285 96.0208 59.7285C96.715 59.7285 97.2708 59.9716 97.6875 60.4577C98.1733 60.8744 98.4167 61.4299 98.4167 62.1244V87.6452C98.4167 89.3119 97.8267 90.7354 96.6458 91.916C95.4653 93.0966 94.0417 93.6869 92.375 93.6869H25.2917ZM90.2917 52.4369C90.2223 52.4369 89.9792 52.2285 89.5625 51.8119C88.5208 47.9229 86.5764 44.5549 83.7292 41.7077C80.8819 38.8604 77.5139 36.916 73.625 35.8744C73.4861 35.8744 73.2778 35.6313 73 35.1452C73 35.0063 73.2083 34.7285 73.625 34.3119C77.5139 33.2702 80.8819 31.3258 83.7292 28.4785C86.5764 25.6313 88.5208 22.2979 89.5625 18.4785C89.5625 18.3396 89.8056 18.1313 90.2917 17.8535C90.4306 17.8535 90.7083 18.0618 91.125 18.4785C92.2361 22.2979 94.1806 25.6313 96.9583 28.4785C99.7358 31.3258 103.069 33.2702 106.958 34.3119C107.098 34.3119 107.306 34.5896 107.583 35.1452C107.583 35.2146 107.375 35.4577 106.958 35.8744C103.139 36.916 99.8058 38.8604 96.9583 41.7077C94.1111 44.5549 92.1667 47.9229 91.125 51.8119C91.125 51.9508 90.8473 52.1591 90.2917 52.4369ZM38.2083 62.4369L45.9167 54.7285C46.3333 54.2424 46.5417 53.6869 46.5417 53.0619C46.6111 52.3674 46.4028 51.7771 45.9167 51.291C45.4306 50.8049 44.8403 50.5619 44.1458 50.5619C43.5208 50.5619 42.9653 50.8049 42.4792 51.291L33.4167 60.3535C32.7917 60.9091 32.4792 61.6035 32.4792 62.4369C32.4792 63.2702 32.7917 63.9646 33.4167 64.5202L42.5833 73.6869C43.0694 74.1729 43.625 74.4508 44.25 74.5202C44.9444 74.5202 45.5347 74.2424 46.0208 73.6869C46.5069 73.2008 46.75 72.6452 46.75 72.0202C46.75 71.3258 46.5069 70.7354 46.0208 70.2494L38.2083 62.4369ZM79.4583 62.4369L71.6458 70.2494C71.1598 70.7354 70.9167 71.3258 70.9167 72.0202C70.9167 72.6452 71.1598 73.2008 71.6458 73.6869C72.1319 74.2424 72.6875 74.5202 73.3125 74.5202C74.0069 74.5202 74.5973 74.2424 75.0833 73.6869L84.3542 64.5202C84.9098 63.9646 85.1875 63.2702 85.1875 62.4369C85.1875 61.6035 84.9098 60.9091 84.3542 60.3535L75.0833 51.1869C74.5973 50.7008 74.0069 50.4577 73.3125 50.4577C72.6875 50.3883 72.1319 50.6313 71.6458 51.1869C71.1598 51.6729 70.9167 52.2633 70.9167 52.9577C70.9167 53.5827 71.1598 54.1383 71.6458 54.6244L79.4583 62.4369Z"/><defs><linearGradient id="paint0_linear_1185_7485" x1="13" x2="113" y1="112.437" y2="12.437" gradientUnits="userSpaceOnUse"><stop stop-color="#3186FF"/><stop offset=".498" stop-color="#346BF1"/><stop offset="1" stop-color="#4FA0FF"/></linearGradient></defs></svg>