<svg width="120" height="120" viewBox="0 0 120 120" fill="none" xmlns="http://www.w3.org/2000/svg">
<path d="M22.2917 104.188C20.625 104.188 19.2014 103.597 18.0208 102.417C16.8403 101.236 16.25 99.8125 16.25 98.1458V88.5625C16.25 87.9375 16.4583 87.4167 16.875 87C17.3611 86.5139 17.9514 86.2708 18.6458 86.2708C19.3403 86.2708 19.8958 86.5139 20.3125 87C20.7292 87.4167 20.9375 87.9375 20.9375 88.5625V98.1458C20.9375 98.5625 21.0417 98.9097 21.25 99.1875C21.5278 99.3958 21.875 99.5 22.2917 99.5H31.875C32.5 99.5 33.0208 99.7431 33.4375 100.229C33.9236 100.646 34.1667 101.201 34.1667 101.896C34.1667 102.521 33.9236 103.076 33.4375 103.562C33.0208 103.979 32.5 104.188 31.875 104.188H22.2917ZM97.7083 104.188H88.125C87.5 104.188 86.9444 103.979 86.4583 103.562C86.0417 103.076 85.8333 102.486 85.8333 101.792C85.8333 101.097 86.0417 100.542 86.4583 100.125C86.9444 99.7083 87.5 99.5 88.125 99.5H97.7083C98.125 99.5 98.4375 99.3958 98.6458 99.1875C98.9236 98.9097 99.0625 98.5625 99.0625 98.1458V88.5625C99.0625 87.9375 99.2708 87.4167 99.6875 87C100.174 86.5139 100.764 86.2708 101.458 86.2708C102.083 86.2708 102.604 86.5139 103.021 87C103.507 87.4167 103.75 87.9375 103.75 88.5625V98.1458C103.75 99.8125 103.16 101.236 101.979 102.417C100.799 103.597 99.375 104.188 97.7083 104.188ZM59.8958 85.5417C52.7431 85.5417 46.2153 83.7014 40.3125 80.0208C34.4792 76.2708 29.7917 71.0278 26.25 64.2917C25.9722 63.7361 25.7639 63.1458 25.625 62.5208C25.4861 61.8264 25.4167 61.1319 25.4167 60.4375C25.4167 59.7431 25.4861 59.0833 25.625 58.4583C25.7639 57.7639 25.9722 57.1389 26.25 56.5833C29.7917 49.8472 34.4792 44.6042 40.3125 40.8542C46.2153 37.1042 52.7431 35.2292 59.8958 35.2292C67.1181 35.2292 73.6458 37.1042 79.4792 40.8542C85.3819 44.6042 90.1042 49.8472 93.6458 56.5833C93.9931 57.1389 94.2361 57.7639 94.375 58.4583C94.5139 59.0833 94.5833 59.7431 94.5833 60.4375C94.5833 61.1319 94.5139 61.8264 94.375 62.5208C94.2361 63.1458 93.9931 63.7361 93.6458 64.2917C90.1042 71.0278 85.3819 76.2708 79.4792 80.0208C73.6458 83.7014 67.1181 85.5417 59.8958 85.5417ZM59.8958 80.75C66.3542 80.75 72.2917 78.9792 77.7083 75.4375C83.125 71.8264 87.2917 66.8264 90.2083 60.4375C87.2917 54.0486 83.125 49.0486 77.7083 45.4375C72.2917 41.8264 66.3542 40.0208 59.8958 40.0208C53.4375 40.0208 47.5 41.8264 42.0833 45.4375C36.7361 49.0486 32.6042 54.0486 29.6875 60.4375C32.6042 66.8264 36.7361 71.8264 42.0833 75.4375C47.5 78.9792 53.4375 80.75 59.8958 80.75ZM60 73.1458C63.5417 73.1458 66.5278 71.9306 68.9583 69.5C71.4583 67 72.7083 63.9792 72.7083 60.4375C72.7083 56.8958 71.4583 53.9097 68.9583 51.4792C66.5278 48.9792 63.5417 47.7292 60 47.7292C56.4583 47.7292 53.4375 48.9792 50.9375 51.4792C48.5069 53.9097 47.2917 56.8958 47.2917 60.4375C47.2917 63.9792 48.5069 67 50.9375 69.5C53.4375 71.9306 56.4583 73.1458 60 73.1458ZM60 68.3542C57.7778 68.3542 55.9028 67.5903 54.375 66.0625C52.8472 64.5347 52.0833 62.6597 52.0833 60.4375C52.0833 58.2153 52.8472 56.3403 54.375 54.8125C55.9028 53.2153 57.7778 52.4167 60 52.4167C62.2222 52.4167 64.0972 53.2153 65.625 54.8125C67.2222 56.3403 68.0208 58.2153 68.0208 60.4375C68.0208 62.6597 67.2222 64.5347 65.625 66.0625C64.0972 67.5903 62.2222 68.3542 60 68.3542ZM103.75 22.7292V32.3125C103.75 32.9375 103.507 33.4931 103.021 33.9792C102.604 34.3958 102.049 34.6042 101.354 34.6042C100.66 34.6042 100.104 34.3958 99.6875 33.9792C99.2708 33.4931 99.0625 32.9375 99.0625 32.3125V22.7292C99.0625 22.3125 98.9236 22 98.6458 21.7917C98.4375 21.5139 98.125 21.375 97.7083 21.375H88.125C87.5 21.375 86.9444 21.1667 86.4583 20.75C86.0417 20.2639 85.8333 19.6736 85.8333 18.9792C85.8333 18.3542 86.0417 17.8333 86.4583 17.4167C86.9444 16.9305 87.5 16.6875 88.125 16.6875H97.7083C99.375 16.6875 100.799 17.2778 101.979 18.4583C103.16 19.6389 103.75 21.0625 103.75 22.7292ZM22.2917 16.6875H31.875C32.5 16.6875 33.0208 16.9305 33.4375 17.4167C33.9236 17.8333 34.1667 18.3889 34.1667 19.0833C34.1667 19.7778 33.9236 20.3333 33.4375 20.75C33.0208 21.1667 32.5 21.375 31.875 21.375H22.2917C21.875 21.375 21.5278 21.5139 21.25 21.7917C21.0417 22 20.9375 22.3125 20.9375 22.7292V32.3125C20.9375 32.9375 20.6944 33.4931 20.2083 33.9792C19.7917 34.3958 19.2361 34.6042 18.5417 34.6042C17.9167 34.6042 17.3611 34.3958 16.875 33.9792C16.4583 33.4931 16.25 32.9375 16.25 32.3125V22.7292C16.25 21.0625 16.8403 19.6389 18.0208 18.4583C19.2014 17.2778 20.625 16.6875 22.2917 16.6875Z" fill="white"/>
<path d="M22.2917 104.188C20.625 104.188 19.2014 103.597 18.0208 102.417C16.8403 101.236 16.25 99.8125 16.25 98.1458V88.5625C16.25 87.9375 16.4583 87.4167 16.875 87C17.3611 86.5139 17.9514 86.2708 18.6458 86.2708C19.3403 86.2708 19.8958 86.5139 20.3125 87C20.7292 87.4167 20.9375 87.9375 20.9375 88.5625V98.1458C20.9375 98.5625 21.0417 98.9097 21.25 99.1875C21.5278 99.3958 21.875 99.5 22.2917 99.5H31.875C32.5 99.5 33.0208 99.7431 33.4375 100.229C33.9236 100.646 34.1667 101.201 34.1667 101.896C34.1667 102.521 33.9236 103.076 33.4375 103.562C33.0208 103.979 32.5 104.188 31.875 104.188H22.2917ZM97.7083 104.188H88.125C87.5 104.188 86.9444 103.979 86.4583 103.562C86.0417 103.076 85.8333 102.486 85.8333 101.792C85.8333 101.097 86.0417 100.542 86.4583 100.125C86.9444 99.7083 87.5 99.5 88.125 99.5H97.7083C98.125 99.5 98.4375 99.3958 98.6458 99.1875C98.9236 98.9097 99.0625 98.5625 99.0625 98.1458V88.5625C99.0625 87.9375 99.2708 87.4167 99.6875 87C100.174 86.5139 100.764 86.2708 101.458 86.2708C102.083 86.2708 102.604 86.5139 103.021 87C103.507 87.4167 103.75 87.9375 103.75 88.5625V98.1458C103.75 99.8125 103.16 101.236 101.979 102.417C100.799 103.597 99.375 104.188 97.7083 104.188ZM59.8958 85.5417C52.7431 85.5417 46.2153 83.7014 40.3125 80.0208C34.4792 76.2708 29.7917 71.0278 26.25 64.2917C25.9722 63.7361 25.7639 63.1458 25.625 62.5208C25.4861 61.8264 25.4167 61.1319 25.4167 60.4375C25.4167 59.7431 25.4861 59.0833 25.625 58.4583C25.7639 57.7639 25.9722 57.1389 26.25 56.5833C29.7917 49.8472 34.4792 44.6042 40.3125 40.8542C46.2153 37.1042 52.7431 35.2292 59.8958 35.2292C67.1181 35.2292 73.6458 37.1042 79.4792 40.8542C85.3819 44.6042 90.1042 49.8472 93.6458 56.5833C93.9931 57.1389 94.2361 57.7639 94.375 58.4583C94.5139 59.0833 94.5833 59.7431 94.5833 60.4375C94.5833 61.1319 94.5139 61.8264 94.375 62.5208C94.2361 63.1458 93.9931 63.7361 93.6458 64.2917C90.1042 71.0278 85.3819 76.2708 79.4792 80.0208C73.6458 83.7014 67.1181 85.5417 59.8958 85.5417ZM59.8958 80.75C66.3542 80.75 72.2917 78.9792 77.7083 75.4375C83.125 71.8264 87.2917 66.8264 90.2083 60.4375C87.2917 54.0486 83.125 49.0486 77.7083 45.4375C72.2917 41.8264 66.3542 40.0208 59.8958 40.0208C53.4375 40.0208 47.5 41.8264 42.0833 45.4375C36.7361 49.0486 32.6042 54.0486 29.6875 60.4375C32.6042 66.8264 36.7361 71.8264 42.0833 75.4375C47.5 78.9792 53.4375 80.75 59.8958 80.75ZM60 73.1458C63.5417 73.1458 66.5278 71.9306 68.9583 69.5C71.4583 67 72.7083 63.9792 72.7083 60.4375C72.7083 56.8958 71.4583 53.9097 68.9583 51.4792C66.5278 48.9792 63.5417 47.7292 60 47.7292C56.4583 47.7292 53.4375 48.9792 50.9375 51.4792C48.5069 53.9097 47.2917 56.8958 47.2917 60.4375C47.2917 63.9792 48.5069 67 50.9375 69.5C53.4375 71.9306 56.4583 73.1458 60 73.1458ZM60 68.3542C57.7778 68.3542 55.9028 67.5903 54.375 66.0625C52.8472 64.5347 52.0833 62.6597 52.0833 60.4375C52.0833 58.2153 52.8472 56.3403 54.375 54.8125C55.9028 53.2153 57.7778 52.4167 60 52.4167C62.2222 52.4167 64.0972 53.2153 65.625 54.8125C67.2222 56.3403 68.0208 58.2153 68.0208 60.4375C68.0208 62.6597 67.2222 64.5347 65.625 66.0625C64.0972 67.5903 62.2222 68.3542 60 68.3542ZM103.75 22.7292V32.3125C103.75 32.9375 103.507 33.4931 103.021 33.9792C102.604 34.3958 102.049 34.6042 101.354 34.6042C100.66 34.6042 100.104 34.3958 99.6875 33.9792C99.2708 33.4931 99.0625 32.9375 99.0625 32.3125V22.7292C99.0625 22.3125 98.9236 22 98.6458 21.7917C98.4375 21.5139 98.125 21.375 97.7083 21.375H88.125C87.5 21.375 86.9444 21.1667 86.4583 20.75C86.0417 20.2639 85.8333 19.6736 85.8333 18.9792C85.8333 18.3542 86.0417 17.8333 86.4583 17.4167C86.9444 16.9305 87.5 16.6875 88.125 16.6875H97.7083C99.375 16.6875 100.799 17.2778 101.979 18.4583C103.16 19.6389 103.75 21.0625 103.75 22.7292ZM22.2917 16.6875H31.875C32.5 16.6875 33.0208 16.9305 33.4375 17.4167C33.9236 17.8333 34.1667 18.3889 34.1667 19.0833C34.1667 19.7778 33.9236 20.3333 33.4375 20.75C33.0208 21.1667 32.5 21.375 31.875 21.375H22.2917C21.875 21.375 21.5278 21.5139 21.25 21.7917C21.0417 22 20.9375 22.3125 20.9375 22.7292V32.3125C20.9375 32.9375 20.6944 33.4931 20.2083 33.9792C19.7917 34.3958 19.2361 34.6042 18.5417 34.6042C17.9167 34.6042 17.3611 34.3958 16.875 33.9792C16.4583 33.4931 16.25 32.9375 16.25 32.3125V22.7292C16.25 21.0625 16.8403 19.6389 18.0208 18.4583C19.2014 17.2778 20.625 16.6875 22.2917 16.6875Z" fill="url(#paint0_linear_1692_18869)"/>
<defs>
<linearGradient id="paint0_linear_1692_18869" x1="5.92549" y1="131.07" x2="146.735" y2="23.1546" gradientUnits="userSpaceOnUse">
<stop stop-color="#3186FF"/>
<stop offset="0.49754" stop-color="#346BF1"/>
<stop offset="1" stop-color="#4FA0FF"/>
</linearGradient>
</defs>
</svg>
