<svg xmlns="http://www.w3.org/2000/svg" width="120" height="120" fill="none" viewBox="0 0 120 120"><path fill="#fff" d="M50.8333 69.6042V51.375H69.0625V69.6042H50.8333ZM55.625 64.8125H64.375V56.0625H55.625V64.8125ZM48.5417 94.9167V87.5208H38.9583C37.2917 87.5208 35.8681 86.9306 34.6875 85.75C33.5069 84.5694 32.9167 83.1458 32.9167 81.4792V71.8958H25.5208V67.2083H32.9167V53.4583H25.5208V48.6667H32.9167V39.0833C32.9167 37.4167 33.5069 35.9931 34.6875 34.8125C35.8681 33.6319 37.2917 33.0417 38.9583 33.0417H48.5417V25.9583H53.2292V33.0417H66.9792V25.9583H71.7708V33.0417H81.3542C83.0208 33.0417 84.4444 33.6319 85.625 34.8125C86.8056 35.9931 87.3958 37.4167 87.3958 39.0833V48.6667H94.4792V53.4583H87.3958V67.2083H94.4792V71.8958H87.3958V81.4792C87.3958 83.1458 86.8056 84.5694 85.625 85.75C84.4444 86.9306 83.0208 87.5208 81.3542 87.5208H71.7708V94.9167H66.9792V87.5208H53.2292V94.9167H48.5417ZM81.3542 82.8333C81.7014 82.8333 81.9792 82.6944 82.1875 82.4167C82.4653 82.1389 82.6042 81.8264 82.6042 81.4792V39.0833C82.6042 38.7361 82.4653 38.4583 82.1875 38.25C81.9792 37.9722 81.7014 37.8333 81.3542 37.8333H38.9583C38.6111 37.8333 38.2986 37.9722 38.0208 38.25C37.7431 38.4583 37.6042 38.7361 37.6042 39.0833V81.4792C37.6042 81.8264 37.7431 82.1389 38.0208 82.4167C38.2986 82.6944 38.6111 82.8333 38.9583 82.8333H81.3542Z"/><path fill="url(#paint0_linear_1692_18871)" d="M50.8333 69.6042V51.375H69.0625V69.6042H50.8333ZM55.625 64.8125H64.375V56.0625H55.625V64.8125ZM48.5417 94.9167V87.5208H38.9583C37.2917 87.5208 35.8681 86.9306 34.6875 85.75C33.5069 84.5694 32.9167 83.1458 32.9167 81.4792V71.8958H25.5208V67.2083H32.9167V53.4583H25.5208V48.6667H32.9167V39.0833C32.9167 37.4167 33.5069 35.9931 34.6875 34.8125C35.8681 33.6319 37.2917 33.0417 38.9583 33.0417H48.5417V25.9583H53.2292V33.0417H66.9792V25.9583H71.7708V33.0417H81.3542C83.0208 33.0417 84.4444 33.6319 85.625 34.8125C86.8056 35.9931 87.3958 37.4167 87.3958 39.0833V48.6667H94.4792V53.4583H87.3958V67.2083H94.4792V71.8958H87.3958V81.4792C87.3958 83.1458 86.8056 84.5694 85.625 85.75C84.4444 86.9306 83.0208 87.5208 81.3542 87.5208H71.7708V94.9167H66.9792V87.5208H53.2292V94.9167H48.5417ZM81.3542 82.8333C81.7014 82.8333 81.9792 82.6944 82.1875 82.4167C82.4653 82.1389 82.6042 81.8264 82.6042 81.4792V39.0833C82.6042 38.7361 82.4653 38.4583 82.1875 38.25C81.9792 37.9722 81.7014 37.8333 81.3542 37.8333H38.9583C38.6111 37.8333 38.2986 37.9722 38.0208 38.25C37.7431 38.4583 37.6042 38.7361 37.6042 39.0833V81.4792C37.6042 81.8264 37.7431 82.1389 38.0208 82.4167C38.2986 82.6944 38.6111 82.8333 38.9583 82.8333H81.3542Z"/><defs><linearGradient id="paint0_linear_1692_18871" x1="5.925" x2="146.735" y1="131.07" y2="23.155" gradientUnits="userSpaceOnUse"><stop stop-color="#3186FF"/><stop offset=".498" stop-color="#346BF1"/><stop offset="1" stop-color="#4FA0FF"/></linearGradient></defs></svg>