<?xml version="1.0" encoding="UTF-8"?><svg id="a" xmlns="http://www.w3.org/2000/svg" viewBox="0 0 833.2 498.592"><path d="M609.02,290.393c0-25.705-20.82-46.477-46.48-46.477s-46.47,20.824-46.47,46.477,20.82,46.477,46.47,46.477c1.35,0,2.7-.052,4-.155-.1-1.195-.15-2.441-.15-3.687,0-1.403.05-2.753.15-4.103-1.35.156-2.7.208-4.05.208-21.39,0-38.74-17.345-38.74-38.74s17.35-38.739,38.74-38.739,38.74,17.344,38.74,38.739c0,17.189-11.16,31.781-26.69,36.818-.26,1.87-.42,3.791-.42,5.765,0,.831,0,1.609.06,2.388,20.04-5.193,34.79-23.368,34.79-45.023" fill="#0075c9"/><path d="M810.51,290.393c0,25.705-20.82,46.477-46.48,46.477-24.3,0-44.24-18.642-46.32-42.426,2.75.311,5.46.883,8,1.713,2.8,18.643,18.9,32.976,38.32,32.976,21.4,0,38.74-17.345,38.74-38.74s-17.34-38.739-38.74-38.739-37.44,16.046-38.68,36.35c-2.5-.623-5.04-1.09-7.69-1.298,1.87-23.939,21.92-42.79,46.37-42.79,25.71,0,46.48,20.824,46.48,46.477Z" fill="#eb0045"/><path d="M752.29,335.417c-1.24,20.305-18.07,36.351-38.68,36.351s-38.74-17.344-38.74-38.739c0-17.189,11.21-31.781,26.69-36.819.26-1.869.41-3.79.41-5.816,0-.779,0-1.61-.05-2.389-19.99,5.193-34.79,23.369-34.79,45.024,0,25.653,20.82,46.477,46.48,46.477s44.45-18.851,46.37-42.79c-2.65-.208-5.19-.675-7.69-1.299ZM713.61,294.237c19.42,0,35.52,14.333,38.32,32.976,2.54.83,5.25,1.402,8,1.713-2.08-23.784-22.02-42.426-46.32-42.426-1.35,0-2.7.051-4,.155.1,1.247.15,2.441.15,3.687,0,1.402,0,2.753-.15,4.103,1.35-.156,2.65-.208,4.05-.208" fill="#00953b"/><path d="M659.23,336.714c-1.86,23.94-21.91,42.791-46.37,42.791-25.7,0-46.48-20.824-46.48-46.478,0-21.654,14.8-39.83,34.8-45.023,0,.779.05,1.61.05,2.389,0,1.973-.16,3.895-.42,5.764-15.47,5.089-26.69,19.63-26.69,36.818,0,21.395,17.35,38.74,38.74,38.74s37.44-16.046,38.69-36.351c2.49.623,5.04,1.091,7.68,1.298M608.81,294.495c.1-1.35.16-2.7.16-4.102,0-1.246,0-2.493-.16-3.687,1.3-.104,2.65-.156,4-.156,24.3,0,44.24,18.643,46.32,42.427-2.75-.26-5.45-.883-8-1.714-2.8-18.643-18.9-32.975-38.32-32.975-1.35,0-2.7.052-4.05.207" fill="#ffa400"/><path d="M663.24,329.133c-19.43,0-35.52-14.333-38.33-32.976-2.54-.831-5.24-1.402-7.99-1.713,2.07,23.784,22.01,42.426,46.32,42.426,1.35,0,2.7-.052,4-.155-.11-1.195-.16-2.441-.16-3.687,0-1.403.05-2.753.16-4.103-1.35.156-2.71.208-4.06.208M663.24,243.864c-24.41,0-44.46,18.851-46.38,42.79,2.65.208,5.2.675,7.69,1.298,1.25-20.304,18.07-36.35,38.69-36.35s38.74,17.344,38.74,38.739c0,17.189-11.22,31.781-26.7,36.818-.26,1.87-.41,3.843-.41,5.765,0,.779,0,1.609.05,2.388,20.05-5.193,34.79-23.368,34.79-45.023,0-25.705-20.82-46.477-46.47-46.477" fill="#24272a"/><path d="M827.54,0h-334.22v220.65h339.88V0h-5.66Z" fill="#fff"/><path d="M827.53,5.609h-192.14v16.098h192.14V5.609Z" fill="#c42032"/><path d="M827.53,37.857h-192.14v16.099h192.14v-16.099Z" fill="#c42032"/><path d="M827.53,69.898h-192.14v16.098h192.14v-16.098Z" fill="#c42032"/><path d="M827.53,102.146h-192.14v16.098h192.14v-16.098Z" fill="#c42032"/><path d="M827.54,134.394h-328.56v16.098h328.56v-16.098Z" fill="#c42032"/><path d="M827.54,166.434h-328.56v16.099h328.56v-16.099Z" fill="#c42032"/><path d="M827.54,198.944h-328.56v16.098h328.56v-16.098Z" fill="#c42032"/><path d="M635.45,5.609h-136.47v112.584h136.47V5.609Z" fill="#152c53"/><path d="M520,26.172h5.61l-4.46,3.375,1.71,5.505-4.47-3.376-4.41,3.376,1.77-5.505-4.52-3.375h5.5l1.66-5.349,1.61,5.349Z" fill="#fff"/><path d="M520.06,60.134h5.55l-4.46,3.427,1.71,5.453-4.47-3.375-4.41,3.375,1.77-5.453-4.52-3.427h5.5l1.66-5.349,1.67,5.349Z" fill="#fff"/><path d="M520,94.044h5.61l-4.46,3.428,1.71,5.452-4.47-3.323-4.41,3.323,1.77-5.452-4.52-3.428h5.5l1.66-5.296,1.61,5.296Z" fill="#fff"/><path d="M569.08,26.172h5.61l-4.46,3.375,1.71,5.505-4.41-3.376-4.47,3.376,1.77-5.505-4.52-3.375h5.5l1.72-5.349,1.55,5.349Z" fill="#fff"/><path d="M569.14,60.134h5.55l-4.46,3.427,1.71,5.453-4.47-3.375-4.41,3.375,1.77-5.453-4.52-3.427h5.55l1.61-5.349,1.67,5.349Z" fill="#fff"/><path d="M569.08,94.044h5.61l-4.46,3.428,1.71,5.452-4.41-3.323-4.47,3.323,1.77-5.452-4.52-3.428h5.5l1.72-5.296,1.55,5.296Z" fill="#fff"/><path d="M618.26,26.172h5.5l-4.46,3.375,1.76,5.505-4.46-3.376-4.42,3.376,1.77-5.505-4.57-3.375h5.55l1.67-5.349,1.66,5.349Z" fill="#fff"/><path d="M618.21,60.134h5.55l-4.46,3.427,1.76,5.453-4.46-3.375-4.42,3.375,1.77-5.453-4.57-3.427h5.55l1.67-5.349,1.61,5.349Z" fill="#fff"/><path d="M618.26,94.044h5.5l-4.46,3.428,1.76,5.452-4.46-3.323-4.42,3.323,1.77-5.452-4.57-3.428h5.55l1.67-5.296,1.66,5.296Z" fill="#fff"/><path d="M544.62,43.153h5.51l-4.47,3.427,1.77,5.453-4.47-3.324-4.47,3.324,1.77-5.453-4.47-3.427h5.51l1.66-5.349,1.66,5.349Z" fill="#fff"/><path d="M544.57,77.115h5.56l-4.47,3.376,1.71,5.504-4.41-3.375-4.47,3.375,1.77-5.504-4.47-3.376h5.46l1.71-5.349,1.61,5.349Z" fill="#fff"/><path d="M593.7,43.153h5.51l-4.47,3.427,1.77,5.453-4.47-3.324-4.41,3.324,1.76-5.453-4.52-3.427h5.51l1.66-5.349,1.66,5.349Z" fill="#fff"/><path d="M593.65,77.115h5.56l-4.47,3.376,1.71,5.504-4.41-3.375-4.41,3.375,1.71-5.504-4.47-3.376h5.46l1.71-5.349,1.61,5.349Z" fill="#fff"/><rect x="389.192" y="5.766" width="5.193" height="373.739" fill="#717073"/><path d="M188.069,142.822l9.459.177,25.711-25.711,1.253-10.888c-20.427-18.179-47.31-29.244-76.747-29.244-53.3,0-98.25,36.246-111.579,85.387,2.81-1.943,8.8-.498,8.8-.498l51.389-8.447s2.666-4.368,3.967-4.095c11.755-12.863,28.666-20.957,47.423-20.957,15.256,0,29.292,5.364,40.325,14.277Z" fill="#ea4335"/><path d="M259.356,162.607c-5.958-22.033-18.291-41.465-34.881-56.223l-36.422,36.422c14.582,11.787,23.928,29.806,23.928,49.976v6.424c17.713,0,32.118,14.405,32.118,32.118s-14.405,32.118-32.118,32.118h-64.237l-6.424,6.456v38.542l6.424,6.392h64.237c46.042,0,83.508-37.466,83.508-83.508,0-28.473-14.325-53.638-36.133-68.717Z" fill="#4285f4"/><path d="M83.508,314.832h64.189v-51.389h-64.189c-4.721,0-9.186-1.044-13.233-2.891l-9.25,2.842-25.727,25.727-2.248,8.688c14.02,10.663,31.508,17.023,50.458,17.023Z" fill="#34a853"/><path d="M83.508,147.816C37.466,147.816,0,185.283,0,231.324c0,27.108,12.992,51.245,33.082,66.501l37.241-37.241c-11.145-5.043-18.934-16.252-18.934-29.26,0-17.713,14.405-32.118,32.118-32.118,13.008,0,24.217,7.789,29.26,18.934l37.241-37.241c-15.256-20.09-39.393-33.082-66.501-33.082Z" fill="#fbbc04"/><path d="M175.73,498.592c-1.945,0-3.742-.357-5.391-1.071-1.649-.714-3.083-1.704-4.302-2.972-1.219-1.268-2.167-2.732-2.843-4.394-.677-1.662-1.015-3.452-1.015-5.372s.338-3.711,1.015-5.372c.677-1.661,1.625-3.126,2.843-4.394,1.218-1.268,2.652-2.258,4.302-2.972,1.649-.714,3.446-1.071,5.391-1.071s3.741.357,5.391,1.071c1.649.714,3.083,1.705,4.302,2.972,1.219,1.268,2.166,2.732,2.843,4.394.677,1.662,1.015,3.452,1.015,5.372s-.339,3.711-1.015,5.372c-.677,1.661-1.625,3.126-2.843,4.394-1.219,1.268-2.653,2.259-4.302,2.972-1.649.714-3.447,1.071-5.391,1.071ZM175.73,495.601c1.92,0,3.661-.455,5.225-1.366,1.563-.91,2.812-2.184,3.748-3.822.935-1.637,1.403-3.513,1.403-5.631,0-2.142-.468-4.025-1.403-5.649-.936-1.625-2.185-2.892-3.748-3.803-1.563-.91-3.305-1.366-5.225-1.366-1.896,0-3.631.456-5.206,1.366-1.576.911-2.831,2.178-3.766,3.803-.936,1.625-1.403,3.508-1.403,5.649,0,2.117.467,3.994,1.403,5.631.935,1.637,2.19,2.911,3.766,3.822,1.575.911,3.31,1.366,5.206,1.366Z"/><path d="M195.447,498.001v-15.988h-3.471v-2.843h3.471v-2.031c0-1.23.271-2.283.812-3.157.541-.874,1.274-1.544,2.197-2.012.923-.467,1.926-.701,3.009-.701.714,0,1.28.043,1.698.129.418.087.775.191,1.071.314v3.064c-.32-.123-.689-.252-1.108-.388-.419-.135-.936-.203-1.551-.203-.763,0-1.453.277-2.068.831-.616.554-.923,1.373-.923,2.455v1.698h4.837v2.843h-4.837v15.988h-3.138Z"/><path d="M208.702,498.001v-15.988h-3.471v-2.843h3.471v-2.031c0-1.23.271-2.283.812-3.157.541-.874,1.274-1.544,2.197-2.012.923-.467,1.926-.701,3.009-.701.714,0,1.28.043,1.698.129.418.087.775.191,1.071.314v3.064c-.32-.123-.689-.252-1.108-.388-.419-.135-.936-.203-1.551-.203-.763,0-1.453.277-2.068.831-.616.554-.923,1.373-.923,2.455v1.698h4.837v2.843h-4.837v15.988h-3.138Z"/><path d="M221.995,475.7c-.616,0-1.145-.221-1.588-.665-.443-.443-.665-.972-.665-1.588,0-.64.222-1.175.665-1.606.443-.43.972-.646,1.588-.646.64,0,1.175.216,1.606.646.43.431.646.966.646,1.606,0,.615-.216,1.145-.646,1.588-.431.443-.966.665-1.606.665ZM220.444,498.001v-18.831h3.138v18.831h-3.138Z"/><path d="M236.838,498.592c-1.846,0-3.489-.437-4.929-1.311s-2.566-2.068-3.378-3.582-1.219-3.218-1.219-5.114c0-1.92.406-3.631,1.219-5.132.812-1.501,1.938-2.689,3.378-3.563,1.44-.873,3.083-1.311,4.929-1.311,2.117,0,3.858.486,5.225,1.458,1.366.973,2.332,2.222,2.898,3.748l-2.843,1.182c-.468-1.157-1.163-2.037-2.086-2.64-.923-.603-2.037-.905-3.342-.905-1.108,0-2.136.295-3.083.886-.948.591-1.717,1.422-2.308,2.492-.591,1.071-.886,2.333-.886,3.785,0,1.428.295,2.683.886,3.766.591,1.083,1.36,1.92,2.308,2.511.947.591,1.975.886,3.083.886,1.329,0,2.474-.308,3.434-.923.96-.615,1.674-1.489,2.142-2.622l2.806,1.182c-.616,1.453-1.613,2.683-2.991,3.692-1.379,1.009-3.126,1.514-5.243,1.514Z"/><path d="M250.314,475.7c-.616,0-1.145-.221-1.588-.665-.443-.443-.665-.972-.665-1.588,0-.64.222-1.175.665-1.606.443-.43.972-.646,1.588-.646.64,0,1.175.216,1.606.646.43.431.646.966.646,1.606,0,.615-.216,1.145-.646,1.588-.431.443-.966.665-1.606.665ZM248.763,498.001v-18.831h3.138v18.831h-3.138Z"/><path d="M262.647,498.592c-1.403,0-2.634-.271-3.692-.812-1.059-.541-1.889-1.286-2.492-2.234-.603-.947-.905-2.024-.905-3.231,0-1.378.356-2.541,1.071-3.489.714-.947,1.674-1.662,2.88-2.142,1.206-.48,2.535-.72,3.988-.72,1.255,0,2.363.136,3.323.406.96.271,1.649.542,2.068.812v-1.145c0-1.427-.505-2.56-1.514-3.397-1.01-.836-2.24-1.255-3.692-1.255-1.034,0-2,.228-2.898.683-.899.456-1.606,1.089-2.123,1.902l-2.363-1.772c.738-1.108,1.754-1.987,3.046-2.64,1.292-.652,2.738-.979,4.338-.979,2.56,0,4.566.677,6.018,2.031,1.452,1.354,2.178,3.175,2.178,5.465v11.926h-2.991v-2.695h-.148c-.493.837-1.268,1.594-2.326,2.271-1.059.677-2.314,1.015-3.766,1.015ZM262.942,495.823c1.083,0,2.073-.271,2.972-.812.898-.541,1.618-1.268,2.16-2.178.541-.91.812-1.907.812-2.991-.567-.394-1.274-.714-2.123-.96-.849-.246-1.779-.369-2.788-.369-1.797,0-3.114.369-3.951,1.108-.837.738-1.255,1.649-1.255,2.732,0,1.034.394,1.871,1.182,2.511.788.64,1.784.96,2.991.96Z"/><path d="M276.234,498.001v-26.437h3.138v26.437h-3.138Z"/><path d="M293.218,498.001v-26.437h8.898c1.477,0,2.843.332,4.099.997s2.258,1.582,3.009,2.751c.751,1.169,1.126,2.529,1.126,4.08,0,1.527-.375,2.88-1.126,4.062-.751,1.182-1.754,2.105-3.009,2.769s-2.622.997-4.099.997h-5.76v10.781h-3.138ZM302.19,474.555h-5.834v9.674h5.834c1.034,0,1.92-.24,2.658-.72s1.311-1.089,1.717-1.828c.406-.739.609-1.501.609-2.289s-.203-1.551-.609-2.289c-.406-.739-.978-1.348-1.717-1.828s-1.625-.72-2.658-.72Z"/><path d="M319.138,498.592c-1.403,0-2.634-.271-3.692-.812-1.059-.541-1.889-1.286-2.492-2.234-.603-.947-.905-2.024-.905-3.231,0-1.378.356-2.541,1.071-3.489.714-.947,1.674-1.662,2.88-2.142,1.206-.48,2.535-.72,3.988-.72,1.255,0,2.363.136,3.323.406.96.271,1.649.542,2.068.812v-1.145c0-1.427-.505-2.56-1.514-3.397-1.01-.836-2.24-1.255-3.692-1.255-1.034,0-2,.228-2.898.683-.899.456-1.606,1.089-2.123,1.902l-2.363-1.772c.738-1.108,1.754-1.987,3.046-2.64,1.292-.652,2.738-.979,4.338-.979,2.56,0,4.566.677,6.018,2.031,1.452,1.354,2.178,3.175,2.178,5.465v11.926h-2.991v-2.695h-.148c-.493.837-1.268,1.594-2.326,2.271-1.059.677-2.314,1.015-3.766,1.015ZM319.433,495.823c1.083,0,2.073-.271,2.972-.812.898-.541,1.618-1.268,2.16-2.178.541-.91.812-1.907.812-2.991-.567-.394-1.274-.714-2.123-.96-.849-.246-1.779-.369-2.788-.369-1.797,0-3.114.369-3.951,1.108-.837.738-1.255,1.649-1.255,2.732,0,1.034.394,1.871,1.182,2.511.788.64,1.784.96,2.991.96Z"/><path d="M332.725,498.001v-18.831h2.991v3.028h.148c.246-.714.658-1.335,1.237-1.865.578-.529,1.243-.947,1.994-1.255.75-.308,1.495-.461,2.234-.461.566,0,1.009.031,1.329.092.32.062.615.154.886.277v3.397c-.788-.394-1.674-.591-2.658-.591-.911,0-1.748.258-2.511.775-.763.517-1.373,1.206-1.828,2.068-.456.862-.683,1.809-.683,2.843v10.523h-3.138Z"/><path d="M348.934,493.053v-11.04h-3.286v-2.843h3.286v-5.317h3.138v5.317h4.615v2.843h-4.615v10.265c0,.985.203,1.748.609,2.289.406.542,1.076.812,2.012.812.418,0,.8-.061,1.145-.185.344-.123.652-.271.923-.443v3.065c-.32.148-.671.264-1.052.351-.382.086-.892.129-1.532.129-1.576,0-2.843-.462-3.803-1.385-.96-.923-1.44-2.209-1.44-3.859Z"/><path d="M360.601,498.001v-18.831h2.991v2.769h.148c.492-.91,1.298-1.698,2.418-2.363,1.12-.665,2.344-.997,3.674-.997,2.313,0,4.055.671,5.224,2.012,1.169,1.342,1.754,3.12,1.754,5.335v12.074h-3.138v-11.594c0-1.821-.437-3.107-1.311-3.858-.874-.75-2-1.126-3.378-1.126-1.034,0-1.945.29-2.732.868-.788.579-1.403,1.323-1.846,2.234-.443.911-.665,1.871-.665,2.88v10.597h-3.138Z"/><path d="M389.695,498.592c-1.822,0-3.44-.431-4.855-1.292-1.416-.862-2.523-2.043-3.323-3.545-.8-1.501-1.2-3.212-1.2-5.132,0-1.796.375-3.458,1.126-4.984.75-1.526,1.809-2.751,3.175-3.674,1.366-.923,2.972-1.385,4.819-1.385,1.87,0,3.476.413,4.818,1.237,1.341.825,2.375,1.963,3.101,3.415.726,1.453,1.089,3.114,1.089,4.985,0,.172-.006.345-.019.517-.013.173-.031.32-.055.443h-14.917c.098,1.477.462,2.702,1.089,3.674.628.973,1.409,1.698,2.344,2.178.935.48,1.907.72,2.917.72,1.378,0,2.517-.326,3.415-.979.898-.652,1.618-1.458,2.16-2.418l2.658,1.292c-.738,1.428-1.797,2.609-3.175,3.545-1.379.935-3.102,1.403-5.169,1.403ZM389.437,481.423c-1.527,0-2.794.48-3.803,1.44-1.01.96-1.674,2.203-1.994,3.729h11.483c-.025-.714-.228-1.47-.609-2.271-.382-.8-.978-1.483-1.791-2.049-.812-.566-1.908-.849-3.286-.849Z"/><path d="M402.101,498.001v-18.831h2.991v3.028h.148c.246-.714.658-1.335,1.237-1.865.578-.529,1.243-.947,1.994-1.255.75-.308,1.495-.461,2.234-.461.566,0,1.009.031,1.329.092.32.062.615.154.886.277v3.397c-.788-.394-1.674-.591-2.658-.591-.911,0-1.748.258-2.511.775-.763.517-1.373,1.206-1.828,2.068-.456.862-.683,1.809-.683,2.843v10.523h-3.138Z"/><path d="M433.189,498.592c-1.896,0-3.569-.443-5.021-1.329-1.453-.886-2.591-2.086-3.415-3.6-.825-1.514-1.237-3.206-1.237-5.077s.412-3.563,1.237-5.077c.824-1.514,1.963-2.714,3.415-3.6,1.452-.886,3.126-1.329,5.021-1.329s3.569.449,5.021,1.348c1.452.899,2.59,2.105,3.415,3.618.824,1.514,1.237,3.194,1.237,5.04,0,1.871-.413,3.563-1.237,5.077-.825,1.514-1.963,2.714-3.415,3.6-1.453.886-3.126,1.329-5.021,1.329ZM433.189,495.749c1.132,0,2.197-.283,3.194-.849.997-.566,1.803-1.385,2.418-2.455.615-1.071.923-2.357.923-3.858s-.308-2.788-.923-3.858c-.616-1.071-1.422-1.889-2.418-2.455-.997-.566-2.062-.849-3.194-.849s-2.203.283-3.212.849c-1.01.566-1.822,1.385-2.437,2.455-.615,1.071-.923,2.357-.923,3.858s.308,2.788.923,3.858c.615,1.071,1.427,1.889,2.437,2.455,1.009.567,2.08.849,3.212.849Z"/><path d="M448.143,498.001v-15.988h-3.471v-2.843h3.471v-2.031c0-1.23.271-2.283.812-3.157.541-.874,1.274-1.544,2.197-2.012.923-.467,1.926-.701,3.009-.701.714,0,1.28.043,1.698.129.418.087.775.191,1.071.314v3.064c-.32-.123-.689-.252-1.108-.388-.419-.135-.936-.203-1.551-.203-.763,0-1.453.277-2.068.831-.616.554-.923,1.373-.923,2.455v1.698h4.837v2.843h-4.837v15.988h-3.138Z"/><path d="M473.103,498.001v-23.446h-7.421v-2.991h17.944v2.991h-7.385v23.446h-3.138Z"/><path d="M492.34,498.592c-1.822,0-3.44-.431-4.855-1.292-1.416-.862-2.523-2.043-3.323-3.545-.8-1.501-1.2-3.212-1.2-5.132,0-1.796.375-3.458,1.126-4.984.75-1.526,1.809-2.751,3.175-3.674,1.366-.923,2.972-1.385,4.819-1.385,1.87,0,3.476.413,4.818,1.237,1.341.825,2.375,1.963,3.101,3.415.726,1.453,1.089,3.114,1.089,4.985,0,.172-.006.345-.019.517-.013.173-.031.32-.055.443h-14.917c.098,1.477.462,2.702,1.089,3.674.628.973,1.409,1.698,2.344,2.178.935.48,1.907.72,2.917.72,1.378,0,2.517-.326,3.415-.979.898-.652,1.618-1.458,2.16-2.418l2.658,1.292c-.738,1.428-1.797,2.609-3.175,3.545-1.379.935-3.102,1.403-5.169,1.403ZM492.081,481.423c-1.527,0-2.794.48-3.803,1.44-1.01.96-1.674,2.203-1.994,3.729h11.483c-.025-.714-.228-1.47-.609-2.271-.382-.8-.978-1.483-1.791-2.049-.812-.566-1.908-.849-3.286-.849Z"/><path d="M510.948,498.592c-1.403,0-2.634-.271-3.692-.812-1.059-.541-1.889-1.286-2.492-2.234-.603-.947-.905-2.024-.905-3.231,0-1.378.356-2.541,1.071-3.489.714-.947,1.674-1.662,2.88-2.142,1.206-.48,2.535-.72,3.988-.72,1.255,0,2.363.136,3.323.406.96.271,1.649.542,2.068.812v-1.145c0-1.427-.505-2.56-1.514-3.397-1.01-.836-2.24-1.255-3.692-1.255-1.034,0-2,.228-2.898.683-.899.456-1.606,1.089-2.123,1.902l-2.363-1.772c.738-1.108,1.754-1.987,3.046-2.64,1.292-.652,2.738-.979,4.338-.979,2.56,0,4.566.677,6.018,2.031,1.452,1.354,2.178,3.175,2.178,5.465v11.926h-2.991v-2.695h-.148c-.493.837-1.268,1.594-2.326,2.271-1.059.677-2.314,1.015-3.766,1.015ZM511.243,495.823c1.083,0,2.073-.271,2.972-.812.898-.541,1.618-1.268,2.16-2.178.541-.91.812-1.907.812-2.991-.567-.394-1.274-.714-2.123-.96-.849-.246-1.779-.369-2.788-.369-1.797,0-3.114.369-3.951,1.108-.837.738-1.255,1.649-1.255,2.732,0,1.034.394,1.871,1.182,2.511.788.64,1.784.96,2.991.96Z"/><path d="M524.535,498.001v-18.831h2.991v2.769h.148c.517-.935,1.316-1.729,2.4-2.382,1.083-.652,2.24-.979,3.471-.979,1.403,0,2.609.339,3.618,1.015,1.009.677,1.735,1.557,2.178,2.64.64-1.058,1.501-1.932,2.585-2.622,1.083-.689,2.375-1.034,3.877-1.034,2.24,0,3.889.677,4.948,2.031,1.058,1.354,1.588,3.126,1.588,5.317v12.074h-3.102v-11.594c0-1.821-.369-3.107-1.108-3.858-.739-.75-1.785-1.126-3.138-1.126-.96,0-1.815.277-2.566.831-.751.554-1.342,1.28-1.772,2.178-.431.899-.646,1.877-.646,2.935v10.634h-3.138v-11.557c0-1.821-.369-3.114-1.108-3.877-.738-.763-1.772-1.145-3.101-1.145-.96,0-1.816.283-2.566.849-.751.566-1.342,1.305-1.772,2.215-.431.911-.646,1.896-.646,2.954v10.56h-3.138Z"/><path d="M574.381,498.592c-1.92,0-3.606-.437-5.059-1.311-1.453-.874-2.591-2.092-3.415-3.655-.825-1.563-1.237-3.366-1.237-5.409v-16.652h3.138v16.8c0,1.379.246,2.616.739,3.711.492,1.095,1.224,1.957,2.197,2.584.972.628,2.184.942,3.637.942s2.67-.314,3.655-.942c.984-.628,1.723-1.489,2.215-2.584.492-1.095.739-2.332.739-3.711v-16.8h3.138v16.652c0,2.043-.388,3.846-1.163,5.409-.775,1.563-1.889,2.782-3.342,3.655-1.453.874-3.2,1.311-5.243,1.311Z"/><path d="M596.793,498.592c-1.28,0-2.548-.271-3.803-.812-1.255-.541-2.363-1.342-3.323-2.4-.96-1.058-1.661-2.375-2.104-3.951l2.991-1.219c.418,1.527,1.182,2.806,2.289,3.84,1.108,1.034,2.449,1.551,4.024,1.551.984,0,1.889-.178,2.714-.535.824-.357,1.489-.88,1.994-1.569.504-.689.757-1.526.757-2.511,0-1.304-.486-2.344-1.458-3.12-.973-.775-2.406-1.495-4.302-2.16l-1.661-.591c-.985-.369-1.97-.836-2.954-1.403-.985-.566-1.797-1.311-2.437-2.234-.64-.923-.96-2.086-.96-3.489,0-1.28.344-2.449,1.034-3.508.689-1.058,1.637-1.907,2.843-2.548,1.206-.64,2.597-.96,4.172-.96,1.649,0,3.033.302,4.154.905,1.12.604,2.006,1.317,2.658,2.142.652.825,1.089,1.582,1.311,2.271l-2.917,1.255c-.148-.517-.431-1.052-.849-1.606-.419-.554-.978-1.021-1.68-1.403-.701-.381-1.582-.572-2.64-.572-.862,0-1.668.172-2.418.517-.751.345-1.354.819-1.809,1.422-.456.604-.683,1.299-.683,2.086,0,1.108.443,1.982,1.329,2.621.886.64,2.08,1.219,3.582,1.735l1.735.591c.788.271,1.594.604,2.418.997.824.394,1.594.899,2.308,1.514.714.615,1.292,1.373,1.735,2.271.443.899.665,1.975.665,3.231,0,1.354-.265,2.517-.794,3.489-.53.973-1.225,1.766-2.086,2.381-.862.616-1.803,1.065-2.824,1.348-1.022.282-2.025.425-3.009.425Z"/><path d="M607.39,498.001l10.043-26.437h3.545l10.043,26.437h-3.434l-2.695-7.274h-11.372l-2.696,7.274h-3.434ZM618.097,478.247l-3.508,9.526h9.231l-3.508-9.526-1.034-2.843h-.148l-1.034,2.843Z"/></svg>