<svg width="87" height="28" viewBox="0 0 87 28" fill="none" xmlns="http://www.w3.org/2000/svg">
<g clip-path="url(#clip0_904_7193)">
<path d="M10.7806 9.555V12.425H17.6406C17.4306 14.035 16.8939 15.2133 16.0772 16.0417C15.0739 17.045 13.5106 18.1417 10.7806 18.1417C6.55724 18.1417 3.25557 14.735 3.25557 10.5117C3.25557 6.28833 6.55724 2.88167 10.7806 2.88167C13.0556 2.88167 14.7239 3.78 15.9489 4.935L17.9672 2.91667C16.2639 1.26 13.9772 0 10.7806 0C4.99391 0 0.128906 4.71333 0.128906 10.5C0.128906 16.2867 4.99391 21 10.7806 21C13.9072 21 16.2639 19.9733 18.1072 18.06C19.9972 16.17 20.5922 13.4983 20.5922 11.3517C20.5922 10.6867 20.5456 10.0683 20.4406 9.555H10.7806ZM29.1672 7.22167C25.4222 7.22167 22.3656 10.0683 22.3656 14C22.3656 17.8967 25.4222 20.7783 29.1672 20.7783C32.9122 20.7783 35.9689 17.9083 35.9689 14C35.9689 10.0683 32.9122 7.22167 29.1672 7.22167ZM29.1672 18.1067C27.1139 18.1067 25.3406 16.415 25.3406 14C25.3406 11.5617 27.1139 9.89333 29.1672 9.89333C31.2206 9.89333 32.9939 11.5617 32.9939 14C32.9939 16.415 31.2206 18.1067 29.1672 18.1067ZM62.5106 8.73833H62.4056C61.7406 7.945 60.4572 7.22167 58.8356 7.22167C55.4522 7.22167 52.5006 10.1733 52.5006 14C52.5006 17.8033 55.4522 20.7783 58.8356 20.7783C60.4572 20.7783 61.7406 20.055 62.4056 19.2383H62.5106V20.1833C62.5106 22.7733 61.1222 24.1617 58.8939 24.1617C57.0739 24.1617 55.9422 22.855 55.4756 21.7467L52.8856 22.82C53.6322 24.6167 55.6039 26.8217 58.8939 26.8217C62.3822 26.8217 65.3339 24.7683 65.3339 19.7633V7.57167H62.5106V8.73833ZM59.0922 18.1067C57.0389 18.1067 55.4756 16.3567 55.4756 14C55.4756 11.6083 57.0389 9.89333 59.0922 9.89333C61.1222 9.89333 62.7089 11.6433 62.7089 14.0233C62.7206 16.3917 61.1222 18.1067 59.0922 18.1067ZM44.3339 7.22167C40.5889 7.22167 37.5322 10.0683 37.5322 14C37.5322 17.8967 40.5889 20.7783 44.3339 20.7783C48.0789 20.7783 51.1356 17.9083 51.1356 14C51.1356 10.0683 48.0789 7.22167 44.3339 7.22167ZM44.3339 18.1067C42.2806 18.1067 40.5072 16.415 40.5072 14C40.5072 11.5617 42.2806 9.89333 44.3339 9.89333C46.3872 9.89333 48.1606 11.5617 48.1606 14C48.1606 16.415 46.3872 18.1067 44.3339 18.1067ZM67.6672 0.28H70.5956V20.7783H67.6672V0.28ZM79.6372 18.1067C78.1206 18.1067 77.0472 17.4183 76.3472 16.0533L85.4122 12.3083L85.1089 11.5383C84.5489 10.0217 82.8222 7.22167 79.3106 7.22167C75.8222 7.22167 72.9172 9.96333 72.9172 14C72.9172 17.8033 75.7872 20.7783 79.6372 20.7783C82.7406 20.7783 84.5372 18.8767 85.2839 17.78L82.9739 16.24C82.2039 17.36 81.1539 18.1067 79.6372 18.1067ZM79.4272 9.765C80.6289 9.765 81.6556 10.3833 81.9939 11.2583L75.8689 13.79C75.8689 10.9433 77.8872 9.765 79.4272 9.765Z" fill="black"/>
</g>
<defs>
<clipPath id="clip0_904_7193">
<rect width="86.3333" height="28" fill="white"/>
</clipPath>
</defs>
</svg>
