<svg width="186" height="36" viewBox="0 0 186 36" fill="none" xmlns="http://www.w3.org/2000/svg">
<g clip-path="url(#clip0_1953_27187)">
<path d="M82.2087 24.8994C81.4894 24.8994 81.1298 24.8994 81.1298 24.8994C81.1298 24.8994 81.1298 24.5436 81.1298 23.8319V9.51833C81.1298 8.81432 81.1298 8.46232 81.1298 8.46232C81.1298 8.46232 81.4894 8.46232 82.2087 8.46232H86.0999C88.6099 8.46232 90.6224 9.21224 92.1376 10.7121C93.6527 12.2043 94.4103 14.1824 94.4103 16.6464C94.4103 19.1334 93.6527 21.1307 92.1376 22.6382C90.6224 24.1457 88.6099 24.8994 86.0999 24.8994H82.2087ZM83.0696 23.0514H86.0999C88.0819 23.0514 89.6353 22.4889 90.7601 21.3641C91.885 20.2315 92.4475 18.659 92.4475 16.6464C92.4475 14.6568 91.8812 13.1034 90.7487 11.9862C89.6238 10.869 88.0742 10.3103 86.0999 10.3103H83.0696V23.0514ZM101.886 25.2552C100.187 25.2552 98.7864 24.6698 97.6845 23.499C96.5826 22.3282 96.0316 20.8322 96.0316 19.011C96.0316 17.228 96.5711 15.7511 97.6501 14.5803C98.729 13.4019 100.087 12.8126 101.725 12.8126C103.408 12.8126 104.759 13.3215 105.777 14.3393C106.802 15.357 107.315 16.6235 107.315 18.1386V18.3338C107.315 19.0531 107.315 19.4127 107.315 19.4127C107.315 19.4127 106.959 19.4127 106.247 19.4127H97.168V17.8058H105.283C105.237 16.8798 104.893 16.1108 104.25 15.4986C103.615 14.8864 102.773 14.5803 101.725 14.5803C100.615 14.5803 99.7124 14.9859 99.016 15.797C98.3196 16.6005 97.9715 17.6718 97.9715 19.011C97.9715 20.3731 98.3541 21.4635 99.1193 22.2823C99.8922 23.0935 100.845 23.499 101.977 23.499C102.505 23.499 102.957 23.4302 103.332 23.2924C103.707 23.1547 104.044 22.9596 104.342 22.707C104.64 22.4469 104.897 22.1599 105.111 21.8462C105.333 21.5324 105.444 21.3755 105.444 21.3755C105.444 21.3755 105.716 21.5095 106.259 21.7773C106.802 22.0375 107.074 22.1676 107.074 22.1676C107.074 22.1676 106.948 22.3895 106.695 22.8333C106.443 23.2695 106.064 23.6904 105.559 24.0959C105.061 24.4938 104.526 24.7846 103.952 24.9683C103.385 25.1596 102.697 25.2552 101.886 25.2552ZM114.592 25.2552C112.893 25.2552 111.493 24.6698 110.391 23.499C109.289 22.3282 108.738 20.8322 108.738 19.011C108.738 17.228 109.277 15.7511 110.356 14.5803C111.435 13.4019 112.793 12.8126 114.431 12.8126C116.114 12.8126 117.465 13.3215 118.483 14.3393C119.508 15.357 120.021 16.6235 120.021 18.1386V18.3338C120.021 19.0531 120.021 19.4127 120.021 19.4127C120.021 19.4127 119.665 19.4127 118.953 19.4127H109.874V17.8058H117.989C117.943 16.8798 117.599 16.1108 116.956 15.4986C116.321 14.8864 115.479 14.5803 114.431 14.5803C113.321 14.5803 112.418 14.9859 111.722 15.797C111.026 16.6005 110.678 17.6718 110.678 19.011C110.678 20.3731 111.06 21.4635 111.825 22.2823C112.598 23.0935 113.551 23.499 114.684 23.499C115.212 23.499 115.663 23.4302 116.038 23.2924C116.413 23.1547 116.75 22.9596 117.048 22.707C117.346 22.4469 117.603 22.1599 117.817 21.8462C118.039 21.5324 118.15 21.3755 118.15 21.3755C118.15 21.3755 118.422 21.5095 118.965 21.7773C119.508 22.0375 119.78 22.1676 119.78 22.1676C119.78 22.1676 119.654 22.3895 119.401 22.8333C119.149 23.2695 118.77 23.6904 118.265 24.0959C117.767 24.4938 117.232 24.7846 116.658 24.9683C116.092 25.1596 115.403 25.2552 114.592 25.2552ZM123.039 29.8351C122.396 29.8351 122.075 29.8351 122.075 29.8351C122.075 29.8351 122.075 29.5405 122.075 28.9513V14.0064C122.075 13.4554 122.075 13.1799 122.075 13.1799C122.075 13.1799 122.381 13.1799 122.993 13.1799C123.613 13.1799 123.923 13.1799 123.923 13.1799C123.923 13.1799 123.923 13.4554 123.923 14.0064V14.9361L123.98 14.9476C124.348 14.3125 124.903 13.7998 125.645 13.4095C126.387 13.0116 127.183 12.8126 128.032 12.8126C129.616 12.8126 130.948 13.3904 132.027 14.5459C133.106 15.7014 133.645 17.1936 133.645 19.0225C133.645 20.8284 133.11 22.3206 132.038 23.499C130.975 24.6698 129.639 25.2552 128.032 25.2552C127.183 25.2552 126.391 25.0792 125.656 24.7272C124.929 24.3752 124.401 23.897 124.072 23.2924H124.015V28.9513C124.015 29.5405 124.015 29.8351 124.015 29.8351C124.015 29.8351 123.69 29.8351 123.039 29.8351ZM127.826 23.499C128.92 23.499 129.838 23.0782 130.581 22.2364C131.33 21.3947 131.705 20.3234 131.705 19.0225C131.705 17.6986 131.327 16.6273 130.569 15.8085C129.819 14.9897 128.905 14.5803 127.826 14.5803C126.739 14.5803 125.817 14.9897 125.059 15.8085C124.302 16.6273 123.923 17.6986 123.923 19.0225C123.923 20.3234 124.298 21.3947 125.048 22.2364C125.806 23.0782 126.731 23.499 127.826 23.499ZM136.642 24.8994C135.999 24.8994 135.678 24.8994 135.678 24.8994C135.678 24.8994 135.678 24.6086 135.678 24.0271V14.0064C135.678 13.4554 135.678 13.1799 135.678 13.1799C135.678 13.1799 135.984 13.1799 136.596 13.1799C137.216 13.1799 137.526 13.1799 137.526 13.1799C137.526 13.1799 137.526 13.4554 137.526 14.0064V14.9017H137.595C137.931 14.2895 138.444 13.7883 139.133 13.398C139.822 13.0078 140.533 12.8126 141.268 12.8126C142.117 12.8126 142.86 13.0193 143.495 13.4325C144.13 13.838 144.593 14.3928 144.884 15.0968C145.312 14.3622 145.875 13.7998 146.571 13.4095C147.267 13.0116 148.044 12.8126 148.901 12.8126C150.217 12.8126 151.223 13.2144 151.92 14.0179C152.624 14.8137 152.976 15.9348 152.976 17.3811V24.0271C152.976 24.6086 152.976 24.8994 152.976 24.8994C152.976 24.8994 152.654 24.8994 152.012 24.8994C151.377 24.8994 151.059 24.8994 151.059 24.8994C151.059 24.8994 151.059 24.6086 151.059 24.0271V17.6795C151.059 16.6311 150.841 15.8544 150.405 15.3494C149.976 14.8367 149.31 14.5803 148.407 14.5803C147.535 14.5803 146.797 14.94 146.192 15.6593C145.595 16.3786 145.297 17.251 145.297 18.2764V24.0271C145.297 24.6086 145.297 24.8994 145.297 24.8994C145.297 24.8994 144.972 24.8994 144.321 24.8994C143.678 24.8994 143.357 24.8994 143.357 24.8994C143.357 24.8994 143.357 24.6086 143.357 24.0271V17.7024C143.357 16.6541 143.139 15.8736 142.703 15.3608C142.274 14.8405 141.616 14.5803 140.728 14.5803C139.856 14.5803 139.118 14.9476 138.513 15.6822C137.916 16.4092 137.618 17.2892 137.618 18.3223V24.0271C137.618 24.6086 137.618 24.8994 137.618 24.8994C137.618 24.8994 137.293 24.8994 136.642 24.8994ZM156.683 24.8994C156.041 24.8994 155.719 24.8994 155.719 24.8994C155.719 24.8994 155.719 24.6086 155.719 24.0271V14.0408C155.719 13.4669 155.719 13.1799 155.719 13.1799C155.719 13.1799 156.041 13.1799 156.683 13.1799C157.334 13.1799 157.659 13.1799 157.659 13.1799C157.659 13.1799 157.659 13.4669 157.659 14.0408V24.0271C157.659 24.6086 157.659 24.8994 157.659 24.8994C157.659 24.8994 157.334 24.8994 156.683 24.8994ZM156.683 10.7695C156.324 10.7695 156.014 10.6394 155.754 10.3792C155.493 10.119 155.363 9.81295 155.363 9.46094C155.363 9.08598 155.493 8.77606 155.754 8.53119C156.014 8.28632 156.324 8.16388 156.683 8.16388C157.058 8.16388 157.368 8.28632 157.613 8.53119C157.858 8.77606 157.98 9.08598 157.98 9.46094C157.98 9.81295 157.858 10.119 157.613 10.3792C157.368 10.6394 157.058 10.7695 156.683 10.7695ZM161.449 24.8994C160.806 24.8994 160.485 24.8994 160.485 24.8994C160.485 24.8994 160.485 24.6086 160.485 24.0271V14.0064C160.485 13.4554 160.485 13.1799 160.485 13.1799C160.485 13.1799 160.791 13.1799 161.403 13.1799C162.023 13.1799 162.333 13.1799 162.333 13.1799C162.333 13.1799 162.333 13.4554 162.333 14.0064V14.9017H162.402C162.738 14.3048 163.262 13.8074 163.974 13.4095C164.686 13.0116 165.432 12.8126 166.212 12.8126C167.59 12.8126 168.657 13.2182 169.415 14.0294C170.173 14.8328 170.551 15.9501 170.551 17.3811V24.0271C170.551 24.6086 170.551 24.8994 170.551 24.8994C170.551 24.8994 170.226 24.8994 169.576 24.8994C168.933 24.8994 168.611 24.8994 168.611 24.8994C168.611 24.8994 168.611 24.6086 168.611 24.0271V17.6795C168.611 16.6617 168.367 15.8927 167.877 15.3723C167.387 14.8443 166.66 14.5803 165.696 14.5803C164.77 14.5803 163.993 14.9476 163.366 15.6822C162.738 16.4092 162.425 17.2816 162.425 18.2993V24.0271C162.425 24.6086 162.425 24.8994 162.425 24.8994C162.425 24.8994 162.099 24.8994 161.449 24.8994ZM178.083 25.2552C176.476 25.2552 175.137 24.6698 174.065 23.499C173.002 22.3282 172.47 20.8399 172.47 19.0339C172.47 17.2204 173.005 15.7358 174.077 14.5803C175.156 13.4172 176.495 12.8356 178.094 12.8356C178.944 12.8356 179.724 13.0346 180.436 13.4325C181.155 13.8227 181.695 14.3354 182.054 14.9706L182.112 14.9591V9.33468C182.112 8.75311 182.112 8.46232 182.112 8.46232C182.112 8.46232 182.433 8.46232 183.076 8.46232C183.726 8.46232 184.052 8.46232 184.052 8.46232C184.052 8.46232 184.052 8.75311 184.052 9.33468V24.0615C184.052 24.6201 184.052 24.8994 184.052 24.8994C184.052 24.8994 183.742 24.8994 183.122 24.8994C182.51 24.8994 182.203 24.8994 182.203 24.8994C182.203 24.8994 182.203 24.6201 182.203 24.0615V23.1891L182.146 23.1777C181.756 23.8128 181.193 24.3178 180.459 24.6928C179.732 25.0678 178.94 25.2552 178.083 25.2552ZM178.301 23.522C179.395 23.522 180.317 23.1011 181.067 22.2594C181.825 21.41 182.203 20.331 182.203 19.0225C182.203 17.7139 181.821 16.6503 181.056 15.8315C180.298 15.0127 179.38 14.6033 178.301 14.6033C177.214 14.6033 176.292 15.0127 175.535 15.8315C174.777 16.6503 174.398 17.7178 174.398 19.0339C174.398 20.3425 174.773 21.4176 175.523 22.2594C176.281 23.1011 177.207 23.522 178.301 23.522Z" fill="#B2BBC5"/>
<path d="M9.46707 18.043V15.4995H17.9612C18.0557 16.0139 18.1018 16.5361 18.0988 17.0591C18.0988 18.966 17.5777 21.3276 15.9004 23.0076C14.2698 24.7106 12.1856 25.6191 9.42217 25.6191C4.30321 25.6191 0 21.441 0 16.3095C0 11.178 4.30321 7 9.42264 7C12.2548 7 14.2703 8.11283 15.7877 9.56598L13.9981 11.3595C12.9096 10.338 11.4386 9.54301 9.42264 9.54301C5.68539 9.54301 2.76341 12.5628 2.76341 16.3095C2.76341 20.0563 5.68539 23.0784 9.42264 23.0784C11.8465 23.0784 13.2282 22.102 14.1113 21.2165C14.8311 20.4951 15.3054 19.4601 15.4892 18.0454L9.46707 18.043Z" fill="#B2BBC5"/>
<path d="M31.0432 19.6234C31.0432 23.0772 28.3471 25.6179 25.0411 25.6179C21.7351 25.6179 19.0391 23.0772 19.0391 19.6234C19.0391 16.1494 21.7347 13.6289 25.042 13.6289C28.3494 13.6289 31.0432 16.1494 31.0432 19.6234ZM28.4159 19.6234C28.4159 17.4671 26.8531 15.9905 25.0411 15.9905C23.2291 15.9905 21.6659 17.4662 21.6659 19.6234C21.6659 21.7576 23.2286 23.2563 25.0411 23.2563C26.8536 23.2563 28.4159 21.7576 28.4159 19.6234Z" fill="#B2BBC5"/>
<path d="M44.1374 19.6234C44.1374 23.0772 41.4437 25.6179 38.1353 25.6179C34.827 25.6179 32.1328 23.0772 32.1328 19.6234C32.1328 16.1494 34.8279 13.6289 38.1353 13.6289C41.4427 13.6289 44.1374 16.1494 44.1374 19.6234ZM41.5101 19.6234C41.5101 17.4671 39.9474 15.9905 38.1353 15.9905C36.3233 15.9905 34.7601 17.4662 34.7601 19.6234C34.7601 21.7576 36.3228 23.2563 38.1353 23.2563C39.9478 23.2563 41.5101 21.7576 41.5101 19.6234Z" fill="#B2BBC5"/>
<path d="M56.6867 13.9922V24.7549C56.6867 29.1828 54.0818 30.9992 51.0013 30.9992C48.1013 30.9992 46.3576 29.0464 45.7009 27.4573L47.99 26.5034C48.3974 27.4798 49.3932 28.6376 51.0027 28.6376C52.9733 28.6376 54.1964 27.4113 54.1964 25.1182V24.2557H54.1057C53.5168 24.9822 52.3844 25.6179 50.9573 25.6179C47.9671 25.6179 45.2266 23.0064 45.2266 19.6464C45.2266 16.2629 47.9671 13.6289 50.9573 13.6289C52.3844 13.6289 53.5168 14.2645 54.1057 14.9686H54.1964V13.9922H56.6867ZM54.376 19.6464C54.376 17.5346 52.9728 15.99 51.1823 15.99C49.3703 15.99 47.8525 17.5341 47.8525 19.6464C47.8525 21.7351 49.3703 23.2558 51.1823 23.2558C52.9719 23.2563 54.376 21.7351 54.376 19.6464Z" fill="#B2BBC5"/>
<path d="M61.139 7.69238V25.2535H58.5117V7.69238H61.139Z" fill="#B2BBC5"/>
<path d="M71.2839 21.5987L73.3223 22.9614C72.6675 23.9374 71.08 25.6179 68.339 25.6179C64.9413 25.6179 62.4043 22.9839 62.4043 19.6234C62.4043 16.0608 64.9642 13.6289 68.0443 13.6289C71.1478 13.6289 72.6651 16.104 73.1637 17.4437L73.4355 18.1248L65.4371 21.4398C66.0489 22.6431 67.0003 23.2563 68.3371 23.2563C69.6739 23.2563 70.6043 22.5981 71.2839 21.5987ZM65.0091 19.4424L70.355 17.2177C70.0603 16.4677 69.1772 15.9464 68.1351 15.9464C66.7987 15.945 64.9413 17.124 65.0091 19.442V19.4424Z" fill="#B2BBC5"/>
</g>
<defs>
<clipPath id="clip0_1953_27187">
<rect width="186" height="36" fill="white"/>
</clipPath>
</defs>
</svg>
