<svg width="43" height="54" viewBox="0 0 43 54" fill="none" xmlns="http://www.w3.org/2000/svg">
<rect width="43" height="54" fill="white"/>
<path d="M10.9102 8.72266C7.86677 11.709 6.06629 15.9839 6.44434 20.7324C7.06257 28.4952 14.3727 34.8075 21.0127 34.8076C27.1865 34.8076 29.604 29.4235 29.0059 25.7627C28.7856 24.4196 28.2081 23.1597 27.333 22.1172C28.4896 22.7388 29.5604 23.5085 30.5186 24.4062C33.1937 26.8991 34.8116 30.0872 35.0742 33.3818C35.6535 40.6659 30.2678 48.1179 21.2646 48.1182C18.2818 48.1182 15.1404 47.3542 12.499 46.1074C5.33802 42.7276 0.382921 35.4417 0.382812 26.998C0.382812 19.1942 4.6157 12.3792 10.9102 8.72266ZM21.7432 5.87891C24.7259 5.87896 27.8675 6.64193 30.5088 7.88867C37.6697 11.2686 42.624 18.5554 42.624 26.999C42.624 34.8027 38.392 41.6176 32.0977 45.2734C35.141 42.2871 36.9405 38.0121 36.5625 33.2637C35.9443 25.5014 28.6342 19.1885 21.9941 19.1885C15.8201 19.1885 13.4026 24.5736 14.001 28.2344C14.2213 29.5775 14.7998 30.8364 15.6748 31.8789C14.5183 31.2573 13.4475 30.4876 12.4893 29.5898C9.81413 27.097 8.19625 23.9099 7.93359 20.6152C7.3542 13.331 12.7397 5.87891 21.7432 5.87891Z" fill="#0053D6"/>
</svg>
