<svg width="60" height="54" viewBox="0 0 60 54" fill="none" xmlns="http://www.w3.org/2000/svg">
<rect width="60" height="54" fill="white"/>
<path d="M38.1388 16.2599L40.0493 16.2962L45.2414 11.1042L45.4938 8.90495C41.368 5.23354 35.9396 3 29.9943 3C19.2305 3 10.1529 10.3206 7.46094 20.2443C8.02841 19.8525 9.23808 20.1434 9.23808 20.1434L19.6162 18.4369C19.6162 18.4369 20.1554 17.5544 20.4179 17.6089C22.7928 15.0119 26.2078 13.3761 29.9943 13.3761C33.076 13.3761 35.9093 14.4585 38.1368 16.2599H38.1388Z" fill="#EA4335"/>
<path d="M52.5351 20.2578C51.3315 15.8089 48.8415 11.885 45.4912 8.9043L38.1363 16.2592C41.0807 18.6402 42.9689 22.2793 42.9689 26.3526V27.6491C46.5454 27.6491 49.4554 30.5592 49.4554 34.1357C49.4554 37.7122 46.5454 40.6222 42.9689 40.6222H29.9957L28.6992 41.9268V49.7099L29.9957 51.0003H42.9689C52.2665 51.0003 59.8335 43.4333 59.8335 34.1357C59.8335 28.3862 56.9416 23.3032 52.5372 20.2578H52.5351Z" fill="#4285F4"/>
<path d="M17.0262 50.9988H29.9893V40.6207H17.0262C16.073 40.6207 15.1703 40.4107 14.3545 40.0371L12.4864 40.6106L7.29032 45.8068L6.83594 47.5617C9.66725 49.7145 13.1993 50.9988 17.0262 50.9988Z" fill="#34A853"/>
<path d="M17.0248 17.2715C7.72713 17.2715 0.160156 24.8385 0.160156 34.1362C0.160156 39.611 2.78345 44.484 6.84058 47.5657L14.3611 40.0452C12.1094 39.0273 10.5382 36.7635 10.5382 34.1362C10.5382 30.5597 13.4483 27.6496 17.0248 27.6496C19.6522 27.6496 21.916 29.2228 22.9338 31.4725L30.4543 23.9519C27.3726 19.8948 22.4996 17.2715 17.0248 17.2715Z" fill="#FBBC04"/>
</svg>
