<svg xmlns="http://www.w3.org/2000/svg" width="38" height="54" fill="none" viewBox="0 0 38 54"><g clip-path="url(#clip0_5565_1098)"><rect width="38" height="54" fill="#fff"/><path fill="#fff" d="M0.25 0V49.3809L19.0016 54L37.7532 49.3809V0H0.25Z"/><path fill="#011E41" d="M15.2102 35.0747L16.0326 35.1775L22.565 31.2481L30.132 40.6919L31.5578 41.0401L36.2664 46.5644V20.5078H1.66797V37.5583L12.3652 31.4007L15.2102 35.0747Z"/><path fill="#fff" d="M31.8819 25.2532L29.8857 26.7022L30.6517 29.0565L28.6522 27.6042L26.6494 29.0565L27.4187 26.7022L25.4258 25.2532H27.8862L28.6522 22.9121L29.4149 25.2532H31.8786H31.8819Z"/><path fill="#fff" d="M22.1983 25.2532L20.2021 26.7022L20.9681 29.0565L18.9686 27.6042L16.9658 29.0565L17.7317 26.7022L15.7422 25.2532H18.2026L18.9686 22.9121L19.7313 25.2532H22.195H22.1983Z"/><path fill="#fff" d="M12.5108 25.2532L10.5146 26.7022L11.2806 29.0565L9.28109 27.6042L7.27827 29.0565L8.04425 26.7022L6.05469 25.2532H8.51511L9.28109 22.9121L10.0438 25.2532H12.5075H12.5108Z"/><path fill="#D0CFCD" d="M14.2676 40.8583L20.4651 42.4698L16.2372 36.4547L14.5992 36.2358L12.3477 33.2051V37.612L14.2676 40.8583Z"/><path fill="#D0CFCD" d="M26.1232 43.9355L34.098 46.008L30.8319 42.2212L29.5784 41.9791L22.5586 33.1289V39.5021L26.1232 43.9355Z"/><path fill="#D7282F" d="M1.66797 47.9749L18.7616 52.415L18.9672 52.468L25.0818 50.8731L1.66797 44.8281V47.9749Z"/><path fill="#D7282F" d="M1.66797 39.0137V42.1671L30.1784 49.555L36.2664 47.9766L1.66797 39.0137Z"/><path fill="#011E41" d="M34.0816 6.90508C32.4004 5.86056 30.202 5.20732 28.4843 5.20732C27.1745 5.20732 26.4848 5.71134 26.4848 6.45411V6.50385C26.4848 7.2433 27.0518 7.55168 29.4227 8.11871C33.1001 8.95764 36.3331 9.94247 36.3331 13.5204V13.527C36.3331 15.5862 35.2289 17.0784 33.5411 18.0101C32.3043 18.6932 30.7557 19.0746 29.0978 19.1575C26.1234 19.3034 22.6881 18.4047 20.7383 16.9988C21.3451 15.6923 21.942 14.4124 22.5322 13.1423C24.2598 14.4986 27.0087 15.2347 29.0082 15.2347C30.318 15.2347 31.0077 14.7307 31.0077 13.9879V13.9382C31.0077 13.1987 30.4407 12.8903 28.0698 12.3233C24.3924 11.4844 21.3219 10.4498 21.3219 6.92165V6.90839C21.3219 4.49108 22.7345 2.94253 24.5151 2.11355C25.9443 1.45036 27.6387 1.28125 28.8292 1.28125C33.3554 1.28125 35.5937 2.94585 35.9352 3.14481C35.3118 4.40486 34.075 6.90508 34.075 6.90508H34.0816Z"/><path fill="#011E41" d="M14.5869 1.61133C14.5869 1.61133 14.5869 7.28821 14.5869 10.0371C14.5869 12.7529 13.4594 14.6463 10.747 14.6463C8.03456 14.6463 6.90715 12.7529 6.90715 10.0371C6.90383 7.28821 6.90715 1.61133 6.90715 1.61133H1.66797V10.8893C1.66797 15.1901 3.52489 19.0996 10.747 19.0996C17.9691 19.0996 19.826 15.1868 19.826 10.8893V1.61133H14.5902H14.5869Z"/></g><defs><clipPath id="clip0_5565_1098"><rect width="38" height="54" fill="#fff"/></clipPath></defs></svg>