<svg width="102" height="36" viewBox="0 0 102 36" fill="none" xmlns="http://www.w3.org/2000/svg">
<g clip-path="url(#clip0_1953_27277)">
<path d="M10.1862 13.6653C10.0017 13.6776 9.81976 13.6162 9.68041 13.4945C9.54106 13.3729 9.45566 13.2009 9.44296 13.0164C9.43064 12.8318 9.49204 12.6499 9.61369 12.5106C9.73534 12.3712 9.90731 12.2858 10.0918 12.2731L14.4186 11.6712C14.6036 11.6445 14.7915 11.6932 14.9401 11.8062C15.0887 11.9192 15.1856 12.0877 15.2089 12.2731C15.2357 12.4601 15.1874 12.6501 15.0747 12.8016C14.9619 12.9532 14.7938 13.054 14.607 13.082L10.2802 13.6653H10.1862ZM15.4908 13.0494L15.9285 11.708L23.7261 14.2524L23.2885 15.5937L15.4908 13.0494Z" fill="#B2BBC5"/>
<path d="M15.2642 12.8001H15.0572C14.6957 12.6832 14.4947 12.2981 14.6056 11.9349L16.167 6.59223C16.2839 6.23075 16.669 6.02969 17.0322 6.14059C17.1209 6.16232 17.2044 6.20177 17.2774 6.25658C17.3505 6.31138 17.4118 6.3804 17.4575 6.45949C17.5032 6.53857 17.5324 6.62609 17.5434 6.71677C17.5544 6.80745 17.547 6.89942 17.5215 6.98715L15.9414 12.2735C15.9006 12.4227 15.8126 12.5546 15.6905 12.6496C15.5684 12.7445 15.4188 12.7973 15.2642 12.8001ZM24.915 15.4341C24.7906 15.4379 24.6676 15.4073 24.5595 15.3458C24.4514 15.2842 24.3623 15.1941 24.3021 15.0852C24.2418 14.9764 24.2127 14.853 24.2179 14.7287C24.2231 14.6044 24.2625 14.484 24.3317 14.3806L27.4733 6.42292C27.5541 6.26841 27.6885 6.14873 27.8513 6.08637C28.0142 6.02402 28.1942 6.02328 28.3575 6.08429C28.5208 6.14792 28.655 6.26927 28.7348 6.42532C28.8145 6.58136 28.8342 6.76125 28.7901 6.93085L25.6295 14.9072C25.5363 15.2233 25.2443 15.4388 24.9145 15.4337L24.915 15.4341ZM8.66016 26.8034L16.0544 20.8987L16.9349 22.0013L9.54058 27.9061L8.66016 26.8034Z" fill="#B2BBC5"/>
<path d="M24.5587 15.7162L25.1043 14.418L31.9521 17.4093L31.3879 18.6884L24.5587 15.7162ZM24.314 23.0152L25.2922 21.9807L31.3688 27.7187L30.3906 28.7346L24.314 23.0152ZM14.5273 12.7113L15.9102 12.4307L17.4302 19.9155L16.0473 20.1962L14.5273 12.7113Z" fill="#B2BBC5"/>
<path d="M16.7305 21.1533L24.4435 14.3809L25.384 15.4344L17.671 22.2069L16.7305 21.1533Z" fill="#B2BBC5"/>
<path d="M23.8623 22.318L24.3139 14.8496L25.7247 14.9436L25.2545 22.4119L23.8623 22.318ZM14.2678 21.5654C14.2634 21.2266 14.3264 20.8904 14.453 20.5761C14.5796 20.2619 14.7674 19.9759 15.0054 19.7348C15.2434 19.4937 15.5269 19.3023 15.8395 19.1717C16.1521 19.041 16.4875 18.9737 16.8263 18.9737C17.1651 18.9737 17.5005 19.041 17.8131 19.1717C18.1257 19.3023 18.4092 19.4937 18.6472 19.7348C18.8852 19.9759 19.073 20.2619 19.1996 20.5761C19.3262 20.8904 19.3892 21.2266 19.3848 21.5654C19.3848 22.2439 19.1153 22.8947 18.6355 23.3745C18.1556 23.8543 17.5049 24.1239 16.8263 24.1239C16.1477 24.1239 15.497 23.8543 15.0172 23.3745C14.5373 22.8947 14.2678 22.2439 14.2678 21.5654Z" fill="#B2BBC5"/>
<path d="M21.9996 15.0568C21.9949 14.656 22.0697 14.2583 22.2198 13.8867C22.3699 13.515 22.5922 13.1769 22.874 12.8918C23.1557 12.6068 23.4912 12.3804 23.861 12.226C24.2308 12.0715 24.6276 11.992 25.0284 11.992C25.4292 11.992 25.826 12.0715 26.1958 12.226C26.5656 12.3804 26.9011 12.6068 27.1829 12.8918C27.4646 13.1769 27.6869 13.515 27.837 13.8867C27.9871 14.2583 28.0619 14.656 28.0572 15.0568C28.0619 15.4575 27.9871 15.8552 27.837 16.2269C27.6869 16.5985 27.4646 16.9366 27.1829 17.2217C26.9011 17.5068 26.5656 17.7331 26.1958 17.8876C25.826 18.042 25.4292 18.1216 25.0284 18.1216C24.6276 18.1216 24.2308 18.042 23.861 17.8876C23.4912 17.7331 23.1557 17.5068 22.874 17.2217C22.5922 16.9366 22.3699 16.5985 22.2198 16.2269C22.0697 15.8552 21.9949 15.4575 21.9996 15.0568ZM23.4295 22.92C23.4295 22.0447 24.1342 21.3399 25.0096 21.3399C25.8849 21.3399 26.5897 22.0447 26.5897 22.92C26.5897 23.7954 25.8849 24.5002 25.0096 24.5002C24.1342 24.5002 23.4295 23.7954 23.4295 22.92ZM13.1387 11.8771C13.1387 11.3831 13.3349 10.9094 13.6842 10.5601C14.0334 10.2109 14.5072 10.0146 15.0011 10.0146C15.4951 10.0146 15.9688 10.2109 16.318 10.5601C16.6673 10.9094 16.8635 11.3831 16.8635 11.8771C16.8635 12.371 16.6673 12.8447 16.318 13.194C15.9688 13.5433 15.4951 13.7395 15.0011 13.7395C14.5072 13.7395 14.0334 13.5433 13.6842 13.194C13.3349 12.8447 13.1387 12.371 13.1387 11.8771Z" fill="#B2BBC5"/>
<path d="M22.4514 1.21191H18.6888V8.73699H22.4514V1.21191ZM29.976 1.21191H26.2135V8.73699H29.976V1.21191ZM14.9263 1.21191H11.1638V8.73699H14.9263V1.21191ZM22.4514 27.5493H18.6888V35.0743H22.4514V27.5493ZM29.976 27.5493H26.2135V35.0743H29.976V27.5493ZM14.9263 27.5493H11.1638V35.0743H14.9263V27.5493ZM11.1638 16.2621H3.63867V20.0246H11.1638V16.2621Z" fill="#B2BBC5"/>
<path d="M11.1638 8.7373H3.63867V12.4998H11.1638V8.7373ZM11.1638 23.787H3.63867V27.5496H11.1638V23.787ZM37.5011 16.2624H29.976V20.0249H37.5011V16.2624ZM37.5011 8.7373H29.976V12.4998H37.5011V8.7373ZM37.5011 23.787H29.976V27.5496H37.5011V23.787Z" fill="#B2BBC5"/>
<path d="M31.8586 4.97363H9.2834C8.24425 4.97363 7.40234 5.81596 7.40234 6.85469V29.4295C7.40234 30.4687 8.24467 31.3106 9.2834 31.3106H31.8582C32.8974 31.3106 33.7393 30.4682 33.7393 29.4295V6.85469C33.7393 5.81554 32.8974 4.97363 31.8586 4.97363ZM29.9776 26.5516C29.9776 26.8162 29.8726 27.0697 29.6855 27.2568C29.4984 27.4439 29.2449 27.5489 28.9803 27.5489H12.1617C11.8972 27.5489 11.6436 27.4439 11.4565 27.2568C11.2694 27.0697 11.1645 26.8162 11.1645 26.5516V9.733C11.1645 9.46845 11.2694 9.2149 11.4565 9.02781C11.6436 8.84072 11.8972 8.73575 12.1617 8.73575H28.9799C29.2445 8.73575 29.498 8.84072 29.6851 9.02781C29.8722 9.2149 29.9772 9.46845 29.9772 9.733L29.9776 26.5516Z" fill="#B2BBC5"/>
</g>
<path d="M57.8349 26C57.1844 26 56.8592 26 56.8592 26C56.8592 26 56.8592 25.7054 56.8592 25.1162V10.4702H58.799V25.1162C58.799 25.7054 58.799 26 58.799 26C58.799 26 58.4776 26 57.8349 26ZM53.0485 11.4114C52.4976 11.4114 52.2221 11.4114 52.2221 11.4114C52.2221 11.4114 52.2221 11.1053 52.2221 10.4932C52.2221 9.87337 52.2221 9.56346 52.2221 9.56346C52.2221 9.56346 52.4976 9.56346 53.0485 9.56346H62.5868C63.1454 9.56346 63.4247 9.56346 63.4247 9.56346C63.4247 9.56346 63.4247 9.87337 63.4247 10.4932C63.4247 11.1053 63.4247 11.4114 63.4247 11.4114C63.4247 11.4114 63.1454 11.4114 62.5868 11.4114H53.0485ZM66.5601 26C65.9097 26 65.5845 26 65.5845 26C65.5845 26 65.5845 25.6786 65.5845 25.0358V10.5391C65.5845 9.88867 65.5845 9.56346 65.5845 9.56346C65.5845 9.56346 65.9021 9.56346 66.5372 9.56346H71.0136C72.5899 9.56346 73.8602 10.0532 74.8243 11.0327C75.7885 12.0121 76.2705 13.2785 76.2705 14.8319C76.2705 16.3776 75.777 17.6096 74.7899 18.5278C73.8028 19.446 72.5057 19.9052 70.8988 19.9052H66.6175V18.1031H70.9447C71.9548 18.1031 72.7659 17.8047 73.3781 17.2078C73.9979 16.611 74.3078 15.819 74.3078 14.8319C74.3078 13.8295 74.0094 13.0107 73.4125 12.3756C72.8157 11.7328 72.0275 11.4114 71.048 11.4114H67.5243V25.0358C67.5243 25.6786 67.5243 26 67.5243 26C67.5243 26 67.2029 26 66.5601 26ZM84.2747 26.3558C82.4688 26.3558 81.0034 25.7628 79.8786 24.5767C78.7614 23.383 78.2028 21.8296 78.2028 19.9166V10.4358C78.2028 9.85424 78.2028 9.56346 78.2028 9.56346C78.2028 9.56346 78.528 9.56346 79.1784 9.56346C79.8212 9.56346 80.1426 9.56346 80.1426 9.56346C80.1426 9.56346 80.1426 9.85424 80.1426 10.4358V19.9855C80.1426 21.3705 80.5099 22.4724 81.2445 23.2912C81.9791 24.1023 82.9891 24.5079 84.2747 24.5079C85.5602 24.5079 86.5703 24.1023 87.3049 23.2912C88.0471 22.4801 88.4182 21.3782 88.4182 19.9855V10.4358C88.4182 9.85424 88.4182 9.56346 88.4182 9.56346C88.4182 9.56346 88.7434 9.56346 89.3939 9.56346C90.0366 9.56346 90.358 9.56346 90.358 9.56346C90.358 9.56346 90.358 9.85424 90.358 10.4358V19.9166C90.358 21.8679 89.8071 23.4289 88.7052 24.5997C87.6109 25.7704 86.1341 26.3558 84.2747 26.3558ZM97.0904 26.3558C96.3405 26.3558 95.6748 26.2602 95.0932 26.0689C94.5193 25.8776 94.0028 25.5944 93.5437 25.2195C93.0922 24.8445 92.7479 24.4199 92.5107 23.9454C92.2735 23.4634 92.1549 23.2223 92.1549 23.2223C92.1549 23.2223 92.4418 23.0922 93.0157 22.8321C93.5973 22.5642 93.8881 22.4303 93.8881 22.4303C93.8881 22.4303 93.9761 22.5949 94.152 22.9239C94.3357 23.2529 94.5844 23.559 94.8981 23.8421C95.2119 24.1176 95.5485 24.3204 95.9082 24.4505C96.2678 24.5806 96.7078 24.6456 97.2282 24.6456C97.9934 24.6456 98.6055 24.4964 99.0646 24.1979C99.5238 23.8919 99.7533 23.4481 99.7533 22.8665C99.7533 22.3997 99.5697 22.0286 99.2024 21.7531C98.8351 21.47 98.0699 21.1984 96.9068 20.9382C95.3687 20.5938 94.263 20.1271 93.5896 19.5379C92.9162 18.941 92.5796 18.1758 92.5796 17.2423C92.5796 16.2858 93.0081 15.4938 93.8651 14.8663C94.7221 14.2312 95.759 13.9136 96.9756 13.9136C97.6414 13.9136 98.2267 13.994 98.7318 14.1547C99.2368 14.3154 99.7036 14.5449 100.132 14.8434C100.561 15.1418 100.882 15.4823 101.096 15.8649C101.311 16.2475 101.418 16.4388 101.418 16.4388C101.418 16.4388 101.135 16.5689 100.568 16.8291C100.01 17.0892 99.7304 17.2193 99.7304 17.2193C99.7304 17.2193 99.6577 17.1007 99.5123 16.8635C99.3669 16.6263 99.1565 16.4082 98.881 16.2092C98.6132 16.0103 98.3186 15.8687 97.9972 15.7846C97.6835 15.7004 97.3276 15.6583 96.9297 15.6583C96.2257 15.6583 95.648 15.8113 95.1965 16.1174C94.7527 16.4235 94.5308 16.7755 94.5308 17.1734C94.5308 17.6096 94.6953 17.9807 95.0244 18.2868C95.3611 18.5852 96.1722 18.8836 97.4577 19.1821C99.0417 19.5417 100.147 20.0199 100.775 20.6168C101.402 21.206 101.716 21.91 101.716 22.7288C101.716 23.823 101.28 24.703 100.408 25.3687C99.5429 26.0268 98.4372 26.3558 97.0904 26.3558Z" fill="#B2BBC5"/>
<defs>
<clipPath id="clip0_1953_27277">
<rect width="34.2857" height="34.2857" fill="white" transform="translate(3.42969 1)"/>
</clipPath>
</defs>
</svg>
