<svg xmlns="http://www.w3.org/2000/svg" width="133" height="36" fill="none" viewBox="0 0 133 36"><g clip-path="url(#clip0_1953_27231)"><path fill="#B2BBC5" d="M30.976 21.9792C30.7515 21.7097 30.437 21.5307 30.0907 21.4753C29.7443 21.4198 29.3897 21.4918 29.0923 21.6778L15.9062 31.3601V31.7745C16.0965 31.752 16.2894 31.77 16.4721 31.8274C16.6549 31.8848 16.8235 31.9803 16.9667 32.1075C17.1099 32.2348 17.2245 32.3909 17.303 32.5657C17.3815 32.7404 17.4221 32.9298 17.4221 33.1214C17.4221 33.313 17.3815 33.5024 17.303 33.6771C17.2245 33.8519 17.1099 34.008 16.9667 34.1353C16.8235 34.2625 16.6549 34.358 16.4721 34.4154C16.2894 34.4728 16.0965 34.4908 15.9062 34.4683C16.2122 34.4697 16.51 34.3704 16.7539 34.1857L30.7123 23.8818C30.9843 23.6537 31.1618 23.3328 31.2106 22.9813C31.2593 22.6297 31.1757 22.2726 30.976 21.9792Z"/><path fill="#B2BBC5" d="M15.9089 34.4674C15.5791 34.4283 15.2751 34.2696 15.0546 34.0214C14.834 33.7732 14.7122 33.4526 14.7122 33.1206C14.7122 32.7885 14.834 32.4679 15.0546 32.2197C15.2751 31.9715 15.5791 31.8128 15.9089 31.7737V31.3593L2.72285 21.6769C2.4267 21.4869 2.07093 21.4126 1.72347 21.4682C1.37601 21.5238 1.06119 21.7054 0.839125 21.9783C0.640516 22.2718 0.561135 22.6299 0.617121 22.9798C0.673107 23.3298 0.860258 23.6452 1.14052 23.8621L15.0989 34.166C15.337 34.348 15.628 34.4472 15.9277 34.4486L15.9089 34.4674Z"/><path fill="#B2BBC5" d="M15.9077 30.3623C15.3601 30.3623 14.8247 30.5247 14.3693 30.829C13.914 31.1332 13.559 31.5657 13.3495 32.0717C13.1399 32.5777 13.085 33.1344 13.1919 33.6716C13.2987 34.2087 13.5625 34.7021 13.9497 35.0894C14.337 35.4767 14.8304 35.7404 15.3675 35.8472C15.9047 35.9541 16.4614 35.8992 16.9674 35.6897C17.4734 35.4801 17.9059 35.1252 18.2101 34.6698C18.5144 34.2144 18.6768 33.679 18.6768 33.1314C18.6768 32.397 18.3851 31.6926 17.8658 31.1733C17.3465 30.654 16.6421 30.3623 15.9077 30.3623ZM15.9077 34.4688C15.6387 34.4688 15.3757 34.3887 15.1523 34.2389C14.9289 34.089 14.7551 33.876 14.653 33.6271C14.5509 33.3782 14.5252 33.1045 14.5791 32.8409C14.6329 32.5773 14.764 32.3357 14.9556 32.1468C15.1471 31.9579 15.3906 31.8302 15.6549 31.7801C15.9192 31.7299 16.1925 31.7594 16.44 31.865C16.6874 31.9705 16.8979 32.1473 17.0447 32.3728C17.1914 32.5983 17.2678 32.8624 17.264 33.1314C17.264 33.3086 17.2288 33.4841 17.1604 33.6476C17.0921 33.8111 16.9919 33.9594 16.8657 34.0838C16.7395 34.2083 16.5898 34.3064 16.4253 34.3725C16.2609 34.4386 16.085 34.4713 15.9077 34.4688Z"/><path fill="#B2BBC5" d="M4.60385 7.32125C4.23067 7.31637 3.87415 7.16595 3.61025 6.90205C3.34635 6.63815 3.19594 6.28163 3.19106 5.90846V2.36706C3.16794 2.16655 3.18749 1.96342 3.24841 1.77099C3.30934 1.57857 3.41026 1.4012 3.54456 1.25053C3.67886 1.09985 3.84351 0.979281 4.02769 0.896723C4.21187 0.814164 4.41143 0.771484 4.61327 0.771484C4.81511 0.771484 5.01467 0.814164 5.19885 0.896723C5.38303 0.979281 5.54767 1.09985 5.68198 1.25053C5.81628 1.4012 5.9172 1.57857 5.97812 1.77099C6.03905 1.96342 6.05859 2.16655 6.03548 2.36706V5.90846C6.03052 6.28487 5.87751 6.64419 5.60956 6.90861C5.34161 7.17304 4.9803 7.32128 4.60385 7.32125Z"/><path fill="#B2BBC5" d="M4.56835 19.8496C5.35901 19.8496 5.99997 19.2086 5.99997 18.418C5.99997 17.6273 5.35901 16.9863 4.56835 16.9863C3.77768 16.9863 3.13672 17.6273 3.13672 18.418C3.13672 19.2086 3.77768 19.8496 4.56835 19.8496Z"/><path fill="#B2BBC5" d="M4.56835 15.6855C5.35901 15.6855 5.99997 15.0446 5.99997 14.2539C5.99997 13.4632 5.35901 12.8223 4.56835 12.8223C3.77768 12.8223 3.13672 13.4632 3.13672 14.2539C3.13672 15.0446 3.77768 15.6855 4.56835 15.6855Z"/><path fill="#B2BBC5" d="M4.56835 11.5029C5.35901 11.5029 5.99997 10.8619 5.99997 10.0713C5.99997 9.28061 5.35901 8.63965 4.56835 8.63965C3.77768 8.63965 3.13672 9.28061 3.13672 10.0713C3.13672 10.8619 3.77768 11.5029 4.56835 11.5029Z"/><path fill="#B2BBC5" d="M27.2077 11.4678C26.8313 11.4629 26.472 11.3099 26.2076 11.0419C25.9431 10.774 25.7949 10.4127 25.7949 10.0362V6.49482C25.7949 6.12013 25.9438 5.76078 26.2087 5.49583C26.4737 5.23088 26.833 5.08203 27.2077 5.08203C27.5824 5.08203 27.9418 5.23088 28.2067 5.49583C28.4717 5.76078 28.6205 6.12013 28.6205 6.49482V10.0362C28.623 10.2233 28.5883 10.4091 28.5184 10.5827C28.4485 10.7562 28.3449 10.9142 28.2134 11.0474C28.082 11.1806 27.9254 11.2864 27.7528 11.3585C27.5801 11.4307 27.3948 11.4679 27.2077 11.4678Z"/><path fill="#B2BBC5" d="M27.2461 19.8681C28.0367 19.8681 28.6777 19.2272 28.6777 18.4365C28.6777 17.6458 28.0367 17.0049 27.2461 17.0049C26.4554 17.0049 25.8145 17.6458 25.8145 18.4365C25.8145 19.2272 26.4554 19.8681 27.2461 19.8681Z"/><path fill="#B2BBC5" d="M27.2461 15.6308C28.0367 15.6308 28.6777 14.9899 28.6777 14.1992C28.6777 13.4085 28.0367 12.7676 27.2461 12.7676C26.4554 12.7676 25.8145 13.4085 25.8145 14.1992C25.8145 14.9899 26.4554 15.6308 27.2461 15.6308Z"/><path fill="#B2BBC5" d="M27.2461 3.79978C28.0367 3.79978 28.6777 3.15882 28.6777 2.36815C28.6777 1.57749 28.0367 0.936523 27.2461 0.936523C26.4554 0.936523 25.8145 1.57749 25.8145 2.36815C25.8145 3.15882 26.4554 3.79978 27.2461 3.79978Z"/><path fill="#B2BBC5" d="M15.9069 24.0684C15.5338 24.0635 15.1772 23.9131 14.9133 23.6492C14.6494 23.3853 14.499 23.0288 14.4941 22.6556V19.0577C14.5344 18.7087 14.7015 18.3867 14.9638 18.153C15.226 17.9192 15.565 17.79 15.9164 17.79C16.2677 17.79 16.6067 17.9192 16.8689 18.153C17.1312 18.3867 17.2983 18.7087 17.3386 19.0577V22.618C17.3411 22.8075 17.3059 22.9957 17.235 23.1716C17.1642 23.3475 17.0592 23.5075 16.926 23.6425C16.7928 23.7774 16.6341 23.8845 16.4592 23.9577C16.2842 24.0308 16.0965 24.0684 15.9069 24.0684Z"/><path fill="#B2BBC5" d="M15.9062 28.2343C16.6969 28.2343 17.3379 27.5934 17.3379 26.8027C17.3379 26.0121 16.6969 25.3711 15.9062 25.3711C15.1156 25.3711 14.4746 26.0121 14.4746 26.8027C14.4746 27.5934 15.1156 28.2343 15.9062 28.2343Z"/><path fill="#B2BBC5" d="M15.9062 16.3467C16.6969 16.3467 17.3379 15.7057 17.3379 14.915C17.3379 14.1244 16.6969 13.4834 15.9062 13.4834C15.1156 13.4834 14.4746 14.1244 14.4746 14.915C14.4746 15.7057 15.1156 16.3467 15.9062 16.3467Z"/><path fill="#B2BBC5" d="M15.9062 12.164C16.6969 12.164 17.3379 11.5231 17.3379 10.7324C17.3379 9.94174 16.6969 9.30078 15.9062 9.30078C15.1156 9.30078 14.4746 9.94174 14.4746 10.7324C14.4746 11.5231 15.1156 12.164 15.9062 12.164Z"/><path fill="#B2BBC5" d="M21.5589 15.6679C21.1857 15.663 20.8292 15.5126 20.5653 15.2487C20.3014 14.9848 20.151 14.6283 20.1461 14.2551V10.7137C20.123 10.5132 20.1426 10.3101 20.2035 10.1177C20.2644 9.92525 20.3653 9.74788 20.4996 9.59721C20.6339 9.44653 20.7986 9.32596 20.9828 9.2434C21.1669 9.16084 21.3665 9.11816 21.5683 9.11816C21.7702 9.11816 21.9697 9.16084 22.1539 9.2434C22.3381 9.32596 22.5028 9.44653 22.6371 9.59721C22.7714 9.74788 22.8723 9.92525 22.9332 10.1177C22.9941 10.3101 23.0137 10.5132 22.9906 10.7137V14.2551C22.9856 14.6316 22.8326 14.9909 22.5646 15.2553C22.2967 15.5197 21.9354 15.668 21.5589 15.6679Z"/><path fill="#B2BBC5" d="M21.5762 7.96189C22.3668 7.96189 23.0078 7.32093 23.0078 6.53026C23.0078 5.73959 22.3668 5.09863 21.5762 5.09863C20.7855 5.09863 20.1445 5.73959 20.1445 6.53026C20.1445 7.32093 20.7855 7.96189 21.5762 7.96189Z"/><path fill="#B2BBC5" d="M21.5762 23.9746C22.3668 23.9746 23.0078 23.3336 23.0078 22.543C23.0078 21.7523 22.3668 21.1113 21.5762 21.1113C20.7855 21.1113 20.1445 21.7523 20.1445 22.543C20.1445 23.3336 20.7855 23.9746 21.5762 23.9746Z"/><path fill="#B2BBC5" d="M21.5762 19.7939C22.3668 19.7939 23.0078 19.153 23.0078 18.3623C23.0078 17.5716 22.3668 16.9307 21.5762 16.9307C20.7855 16.9307 20.1445 17.5716 20.1445 18.3623C20.1445 19.153 20.7855 19.7939 21.5762 19.7939Z"/><path fill="#B2BBC5" d="M10.2383 23.9746C11.0289 23.9746 11.6699 23.3336 11.6699 22.543C11.6699 21.7523 11.0289 21.1113 10.2383 21.1113C9.4476 21.1113 8.80664 21.7523 8.80664 22.543C8.80664 23.3336 9.4476 23.9746 10.2383 23.9746Z"/><path fill="#B2BBC5" d="M10.2383 12.164C11.0289 12.164 11.6699 11.5231 11.6699 10.7324C11.6699 9.94174 11.0289 9.30078 10.2383 9.30078C9.4476 9.30078 8.80664 9.94174 8.80664 10.7324C8.80664 11.5231 9.4476 12.164 10.2383 12.164Z"/><path fill="#B2BBC5" d="M10.2383 7.96189C11.0289 7.96189 11.6699 7.32093 11.6699 6.53026C11.6699 5.73959 11.0289 5.09863 10.2383 5.09863C9.4476 5.09863 8.80664 5.73959 8.80664 6.53026C8.80664 7.32093 9.4476 7.96189 10.2383 7.96189Z"/><path fill="#B2BBC5" d="M10.2558 19.7937C9.88575 19.794 9.52992 19.651 9.263 19.3946C8.99609 19.1382 8.83883 18.7884 8.82422 18.4186V14.8395C8.82422 14.4649 8.97307 14.1055 9.23802 13.8406C9.50297 13.5756 9.86231 13.4268 10.237 13.4268C10.6117 13.4268 10.9711 13.5756 11.236 13.8406C11.501 14.1055 11.6498 14.4649 11.6498 14.8395V18.4186C11.6401 18.7835 11.4895 19.1305 11.2297 19.3868C10.9698 19.6432 10.6208 19.789 10.2558 19.7937Z"/></g><path fill="#B2BBC5" d="M49.4826 24.8574C48.8398 24.8574 48.5184 24.8574 48.5184 24.8574C48.5184 24.8574 48.4266 24.6049 48.243 24.0999L43.0893 9.66051C42.7909 8.83409 42.6417 8.42089 42.6417 8.42089C42.6417 8.42089 43.1046 8.42089 44.0305 8.42089C44.5279 8.42089 44.7766 8.42089 44.7766 8.42089C44.7766 8.42089 44.8417 8.61601 44.9717 9.00627L48.9431 20.4039L49.4826 22.0109H49.5515L50.1024 20.4384L54.1886 8.99479C54.3263 8.61219 54.3952 8.42089 54.3952 8.42089C54.3952 8.42089 54.6362 8.42089 55.1183 8.42089C56.0442 8.42089 56.5072 8.42089 56.5072 8.42089C56.5072 8.42089 56.3541 8.83027 56.048 9.64904L50.7108 24.1114C50.5348 24.6087 50.4468 24.8574 50.4468 24.8574C50.4468 24.8574 50.1254 24.8574 49.4826 24.8574ZM61.7844 25.2132C60.0856 25.2132 58.6853 24.6279 57.5834 23.4571C56.4815 22.2863 55.9306 20.7904 55.9306 18.9692C55.9306 17.1863 56.47 15.7094 57.549 14.5387C58.6279 13.3603 59.9861 12.7711 61.6237 12.7711C63.3071 12.7711 64.6577 13.2799 65.6754 14.2976C66.7008 15.3154 67.2135 16.5818 67.2135 18.0969V18.292C67.2135 19.0113 67.2135 19.3709 67.2135 19.3709C67.2135 19.3709 66.8576 19.3709 66.146 19.3709H57.0669V17.764H65.1819C65.1359 16.8381 64.7916 16.0691 64.1488 15.4569C63.5137 14.8448 62.672 14.5387 61.6237 14.5387C60.5141 14.5387 59.6112 14.9442 58.9148 15.7553C58.2185 16.5588 57.8703 17.6301 57.8703 18.9692C57.8703 20.3313 58.253 21.4217 59.0182 22.2404C59.791 23.0515 60.7437 23.4571 61.8762 23.4571C62.4042 23.4571 62.8556 23.3882 63.2306 23.2505C63.6055 23.1128 63.9422 22.9176 64.2407 22.6651C64.5391 22.4049 64.7954 22.118 65.0097 21.8043C65.2316 21.4905 65.3425 21.3337 65.3425 21.3337C65.3425 21.3337 65.6142 21.4676 66.1575 21.7354C66.7008 21.9956 66.9724 22.1257 66.9724 22.1257C66.9724 22.1257 66.8462 22.3476 66.5936 22.7914C66.3411 23.2275 65.9624 23.6484 65.4573 24.054C64.9599 24.4519 64.4243 24.7426 63.8504 24.9263C63.2842 25.1176 62.5955 25.2132 61.7844 25.2132ZM70.2316 24.8574C69.5889 24.8574 69.2675 24.8574 69.2675 24.8574C69.2675 24.8574 69.2675 24.5666 69.2675 23.9851V13.9648C69.2675 13.4138 69.2675 13.1384 69.2675 13.1384C69.2675 13.1384 69.5736 13.1384 70.1857 13.1384C70.8055 13.1384 71.1155 13.1384 71.1155 13.1384C71.1155 13.1384 71.1155 13.4138 71.1155 13.9648V15.0208H71.1843C71.4062 14.3856 71.8462 13.8538 72.5043 13.4253C73.1624 12.9891 73.8396 12.7711 74.5359 12.7711C74.7349 12.7711 74.9529 12.7902 75.1902 12.8284C75.4274 12.8591 75.6148 12.9011 75.7526 12.9547C75.898 13.0083 75.9707 13.0351 75.9707 13.0351C75.9707 13.0351 75.9707 13.3756 75.9707 14.0566C75.9707 14.73 75.9707 15.0667 75.9707 15.0667C75.9707 15.0667 75.8788 15.0399 75.6952 14.9863C75.5192 14.9251 75.3164 14.8715 75.0869 14.8256C74.8573 14.7797 74.6086 14.7568 74.3408 14.7568C73.4761 14.7568 72.7377 15.0973 72.1255 15.7783C71.5134 16.4593 71.2073 17.2857 71.2073 18.2576V23.9851C71.2073 24.5666 71.2073 24.8574 71.2073 24.8574C71.2073 24.8574 70.8821 24.8574 70.2316 24.8574ZM81.9857 25.2132C81.0521 25.2132 80.2908 24.9263 79.7016 24.3524C79.12 23.7708 78.8292 22.9789 78.8292 21.9764V10.7165C78.8292 10.1349 78.8292 9.84416 78.8292 9.84416C78.8292 9.84416 79.1544 9.84416 79.8049 9.84416C80.4476 9.84416 80.769 9.84416 80.769 9.84416C80.769 9.84416 80.769 10.1349 80.769 10.7165V21.5058C80.769 22.1639 80.8991 22.6498 81.1593 22.9635C81.4194 23.2773 81.8059 23.4341 82.3185 23.4341C82.5481 23.4341 82.7624 23.4112 82.9613 23.3653C83.1603 23.3117 83.3286 23.2543 83.4664 23.1931C83.6117 23.1319 83.6844 23.1013 83.6844 23.1013C83.6844 23.1013 83.6844 23.4035 83.6844 24.008C83.6844 24.6126 83.6844 24.9148 83.6844 24.9148C83.6844 24.9148 83.6079 24.9416 83.4549 24.9952C83.3095 25.0487 83.0991 25.0985 82.8236 25.1444C82.5481 25.1903 82.2688 25.2132 81.9857 25.2132ZM77.5781 14.8945C77.0578 14.8945 76.7976 14.8945 76.7976 14.8945C76.7976 14.8945 76.7976 14.5999 76.7976 14.0107C76.7976 13.4291 76.7976 13.1384 76.7976 13.1384C76.7976 13.1384 77.0578 13.1384 77.5781 13.1384H82.858C83.386 13.1384 83.65 13.1384 83.65 13.1384C83.65 13.1384 83.65 13.4291 83.65 14.0107C83.65 14.5999 83.65 14.8945 83.65 14.8945C83.65 14.8945 83.386 14.8945 82.858 14.8945H77.5781ZM90.9341 25.2132C89.2353 25.2132 87.835 24.6279 86.7331 23.4571C85.6312 22.2863 85.0803 20.7904 85.0803 18.9692C85.0803 17.1863 85.6197 15.7094 86.6987 14.5387C87.7776 13.3603 89.1358 12.7711 90.7734 12.7711C92.4568 12.7711 93.8074 13.2799 94.8251 14.2976C95.8505 15.3154 96.3632 16.5818 96.3632 18.0969V18.292C96.3632 19.0113 96.3632 19.3709 96.3632 19.3709C96.3632 19.3709 96.0073 19.3709 95.2957 19.3709H86.2166V17.764H94.3316C94.2856 16.8381 93.9413 16.0691 93.2985 15.4569C92.6634 14.8448 91.8217 14.5387 90.7734 14.5387C89.6638 14.5387 88.7609 14.9442 88.0646 15.7553C87.3682 16.5588 87.0201 17.6301 87.0201 18.9692C87.0201 20.3313 87.4027 21.4217 88.1679 22.2404C88.9407 23.0515 89.8934 23.4571 91.0259 23.4571C91.5539 23.4571 92.0053 23.3882 92.3803 23.2505C92.7552 23.1128 93.0919 22.9176 93.3904 22.6651C93.6888 22.4049 93.9451 22.118 94.1594 21.8043C94.3813 21.4905 94.4923 21.3337 94.4923 21.3337C94.4923 21.3337 94.7639 21.4676 95.3072 21.7354C95.8505 21.9956 96.1221 22.1257 96.1221 22.1257C96.1221 22.1257 95.9959 22.3476 95.7434 22.7914C95.4908 23.2275 95.1121 23.6484 94.607 24.054C94.1096 24.4519 93.574 24.7426 93.0001 24.9263C92.4339 25.1176 91.7452 25.2132 90.9341 25.2132ZM105.84 24.8574C105.48 24.8574 105.301 24.8574 105.301 24.8574C105.301 24.8574 105.228 24.7465 105.083 24.5246L101.846 19.6464H101.536L97.8628 14.4928C97.2277 13.5898 96.9102 13.1384 96.9102 13.1384C96.9102 13.1384 97.4764 13.1384 98.6089 13.1384C98.9609 13.1384 99.1369 13.1384 99.1369 13.1384C99.1369 13.1384 99.2096 13.2455 99.355 13.4597L102.741 18.3609H102.948L106.575 23.5145C107.202 24.4098 107.516 24.8574 107.516 24.8574C107.516 24.8574 106.957 24.8574 105.84 24.8574ZM98.4712 24.8574C97.3463 24.8574 96.7839 24.8574 96.7839 24.8574C96.7839 24.8574 97.1015 24.406 97.7366 23.503L101.49 18.1428H101.892L105.117 13.4597C105.262 13.2455 105.335 13.1384 105.335 13.1384C105.335 13.1384 105.511 13.1384 105.863 13.1384C106.996 13.1384 107.562 13.1384 107.562 13.1384C107.562 13.1384 107.237 13.586 106.586 14.4813L102.936 19.5775H102.603L99.2173 24.536C99.0795 24.7503 99.0106 24.8574 99.0106 24.8574C99.0106 24.8574 98.8308 24.8574 98.4712 24.8574ZM114.195 24.8574C113.277 24.8574 112.818 24.8574 112.818 24.8574C112.818 24.8574 112.971 24.448 113.277 23.6293L118.752 9.28174C118.974 8.70784 119.085 8.42089 119.085 8.42089C119.085 8.42089 119.452 8.42089 120.187 8.42089C120.921 8.42089 121.289 8.42089 121.289 8.42089C121.289 8.42089 121.4 8.70784 121.621 9.28174L127.039 23.6063C127.353 24.4404 127.51 24.8574 127.51 24.8574C127.51 24.8574 127.043 24.8574 126.109 24.8574C125.62 24.8574 125.375 24.8574 125.375 24.8574C125.375 24.8574 125.306 24.6699 125.168 24.295L120.829 12.4841L120.21 10.5902H120.141L119.51 12.4841L115.113 24.3065C114.983 24.6738 114.918 24.8574 114.918 24.8574C114.918 24.8574 114.677 24.8574 114.195 24.8574ZM115.481 20.3351L116.146 18.4986H123.733L124.399 20.3351H115.481ZM130.423 24.8574C129.773 24.8574 129.448 24.8574 129.448 24.8574C129.448 24.8574 129.448 24.5628 129.448 23.9736V9.29322C129.448 8.71166 129.448 8.42089 129.448 8.42089C129.448 8.42089 129.773 8.42089 130.423 8.42089C131.066 8.42089 131.387 8.42089 131.387 8.42089C131.387 8.42089 131.387 8.71166 131.387 9.29322V23.9736C131.387 24.5628 131.387 24.8574 131.387 24.8574C131.387 24.8574 131.066 24.8574 130.423 24.8574Z"/><defs><clipPath id="clip0_1953_27231"><rect width="31.814" height="36" fill="#fff"/></clipPath></defs></svg>